<?xml version="1.0" encoding="UTF-8"?>
<svg width="800px" height="1000px" viewBox="0 0 800 1000" version="1.1" xmlns="http://www.w3.org/2000/svg" xmlns:xlink="http://www.w3.org/1999/xlink">
    <!-- Generator: Sketch 51.1 (57501) - http://www.bohemiancoding.com/sketch -->
    <title>cow_0001_DL</title>
    <desc>Created with Sketch.</desc>
    <defs></defs>
    <g id="cow_0001_DL" stroke="none" stroke-width="1" fill="none" fill-rule="evenodd">
        <g id="cow_0001" transform="translate(231.000000, 266.000000)">
            <path d="M169,305 C229.199038,305 278,237.394997 278,154 C278,70.6050028 278,3 169,3 C60,3 60,70.6050028 60,154 C60,237.394997 108.800962,305 169,305 Z" id="Oval-3" fill="#FFFFFF"></path>
            <path d="M331,398.491879 C331,257.387611 258.470129,143 169,143 C79.5298705,143 7,257.387611 7,398.491879 C7,423.950541 331,410.601624 331,398.491879 Z" id="Oval" fill="#FFFFFF"></path>
            <path d="M263.65026,218.328706 C263.827812,218.557042 264.004269,218.786475 264.180725,219.014811 C264.003173,218.787573 263.826716,218.558139 263.65026,218.328706 M147.924505,144.928563 C147.604473,144.971376 147.28444,145.014189 146.965504,145.057002 C147.285536,145.014189 147.604473,144.971376 147.924505,144.928563 M139.053465,132.535847 C136.334284,132.990323 133.624967,133.57763 130.948531,134.238487 C127.879725,134.997045 124.873392,135.876359 121.842946,136.794094 C120.464175,137.210148 119.114997,137.767815 117.762531,138.251931 C114.710165,139.345309 111.713696,140.611037 108.801618,142.042528 C103.069528,144.860502 98.1331348,148.929932 93.1879738,152.918128 C88.6625816,156.567112 84.2445976,160.348927 80.1521261,164.478735 C76.0201986,168.642574 72.2148797,173.119276 68.4851849,177.643183 C64.4990256,182.484346 60.7101467,187.501151 57.2303404,192.719946 C56.5409552,193.754044 55.8384179,194.773872 55.2093127,195.842001 C54.4212873,197.188964 53.5390057,198.50958 52.8463324,199.907041 C52.079131,201.454895 51.3086416,203.007141 50.5381522,204.556093 C49.883839,205.880003 49.3478941,207.27417 48.765917,208.624426 C46.3426566,214.220853 44.0991405,219.898515 41.8556244,225.567396 C39.6855405,231.056242 37.5066885,236.536306 35.4473008,242.063573 C31.3197573,253.113718 27.4969023,264.275835 23.7551515,275.459908 C21.7812519,281.360418 19.8588644,287.265318 18.0219651,293.204249 C16.2968579,298.791895 14.8665753,304.443211 13.5272609,310.134046 C12.2383625,315.58447 11.4503371,321.15016 10.1745908,326.604975 C8.78376424,332.561471 7.25045745,338.478447 5.93635106,344.452507 C5.26011783,347.535043 4.72855686,350.657098 4.14657981,353.76159 C3.58542678,356.762891 2.93878561,359.743334 2.3874966,362.745733 C1.71016737,366.415575 1.21367847,370.099689 0.773085666,373.809051 C0.571421299,375.498518 0.443189066,377.205549 0.297420801,378.9027 C0.0793164039,381.44184 -0.25825221,383.950243 0.323724849,386.471819 C0.948445986,389.190993 3.68406696,391.103307 6.3944799,391.103307 C9.30107719,391.103307 11.5829533,389.155864 12.4652349,386.471819 C12.8806197,385.21158 12.8806197,383.7746 12.9836439,382.445201 C13.025292,381.905099 12.9540518,381.346334 12.7984196,380.801841 C12.8806197,379.998274 12.9759719,379.196902 13.060364,378.396628 C13.2072283,376.978311 13.3727246,375.558895 13.5349329,374.142773 C13.8604455,371.823186 14.2177421,369.511284 14.678063,367.213654 C15.268808,364.267241 15.9198332,361.338393 16.5368824,358.40186 C17.6800124,352.929481 18.7113503,347.436244 20.0857368,342.016557 C21.5675315,336.172034 23.0613822,330.339586 24.3371285,324.443468 C25.5273867,318.954622 26.4436444,313.405398 27.9166711,307.97693 C31.1268609,296.137489 34.9847879,284.525286 38.9446431,272.920768 C42.6304978,262.127501 46.3470406,251.338625 50.4997922,240.713317 C53.6310699,232.693016 56.8434517,224.704549 60.0920016,216.728158 C61.8236848,212.732278 63.5509839,208.741887 65.7627159,204.979832 C67.0812063,202.73709 68.4599768,200.584364 69.9066995,198.423954 C71.1649098,196.548965 72.5140882,194.737645 73.8402506,192.90986 C75.9566305,190.199467 78.1047944,187.527497 80.2978944,184.873091 C81.5429527,183.363659 82.853771,181.905821 84.1339014,180.421637 C85.3877277,178.959409 86.676626,177.476322 88.0334765,176.108502 C90.8677376,173.252107 93.6888468,170.400102 96.7719004,167.814856 C99.890026,165.193383 103.032264,162.608136 106.200806,160.047041 C108.123193,158.603474 110.068597,157.221383 112.124696,155.971024 C114.231212,154.681145 116.44404,153.587767 118.701804,152.594286 C123.543941,150.636963 128.539518,149.039709 133.607431,147.784959 C138.596432,146.543382 143.63585,145.671753 148.704859,144.823178 C150.205286,144.621188 151.705712,144.418101 153.207235,144.217209 C155.94724,143.848358 158.763965,143.801154 161.521506,143.78359 C164.174927,143.768221 166.818484,143.940571 169.453273,144.246849 C173.735352,144.896728 177.953864,145.812268 182.113192,147.025303 C184.913477,147.840945 187.628274,148.851991 190.341975,149.902556 C193.338444,151.057409 196.295457,152.280324 199.254663,153.520803 C201.755739,154.59991 204.22284,155.716341 206.64062,156.974385 C209.340073,158.378432 211.858686,160.061312 214.289618,161.879218 C218.835835,165.551256 222.80117,169.764494 226.579089,174.221437 C228.326116,176.288536 230.072047,178.358929 231.83661,180.409562 C235.479721,184.650244 239.174344,188.843723 242.87335,193.033908 C246.405765,197.034179 249.954619,201.035547 253.298521,205.199386 C256.633655,209.342367 259.918373,213.511694 263.175691,217.715053 C265.581416,221.056662 268.064956,224.344481 270.2734,227.81892 L274.691384,234.765604 C275.783002,236.48471 276.687204,238.341038 277.671414,240.124913 C278.570135,241.750709 279.559825,243.35455 280.355522,245.030844 C281.610445,247.65561 282.859887,250.279278 284.110425,252.904044 C285.697436,256.240165 287.094839,259.668498 288.525121,263.080365 C293.007769,274.168932 297.53645,285.242129 301.736329,296.445962 C302.704099,299.032306 303.589669,301.608771 304.437974,304.242319 C305.30272,306.921973 306.223362,309.576379 306.912747,312.307629 L308.427422,318.290471 C308.705806,319.383849 309.031319,320.481619 309.258191,321.58817 C309.943192,324.95393 310.632578,328.319691 311.317579,331.69094 C312.152732,335.772446 312.880478,339.877005 313.702479,343.962902 C314.704225,348.937992 315.744331,353.898811 316.810741,358.865119 C317.650278,362.766591 318.557768,366.660378 319.337025,370.575023 C319.80721,372.963769 320.372747,375.352514 320.757444,377.757727 C321.109261,379.96095 321.459981,382.159781 321.81399,384.361906 C322.255679,388.035042 322.663391,391.702689 322.980136,395.391193 C323.130288,397.157504 323.262905,398.924912 323.411961,400.691223 C323.536905,402.166625 323.723225,403.644222 323.82625,405.120722 C323.597185,406.139452 323.605953,407.21307 323.887626,408.242777 C324.195602,409.336156 324.747987,410.28353 325.544781,411.090391 C326.645167,412.192551 328.489738,413.148708 330.104149,412.980749 C331.456615,412.839137 332.377257,412.775467 333.576283,412.076188 C334.548437,411.502054 335.494287,410.510769 336.063112,409.533754 C336.927857,408.053961 337.086778,406.292042 336.962929,404.61465 C336.868673,403.307207 336.693313,402.003057 336.581521,400.691223 C336.363416,398.07963 336.19244,395.459255 335.939264,392.852053 C335.631287,389.641078 335.258646,386.442179 334.86847,383.238888 C334.488157,380.10366 334.016876,376.931107 333.405307,373.829909 C331.036847,361.814825 328.357122,349.867802 325.955781,337.865892 C324.705243,331.600923 323.528137,325.322781 322.261159,319.062203 C321.68247,316.218981 320.894444,313.418572 320.188619,310.610478 C319.880642,309.391954 319.575954,308.174528 319.267977,306.956004 C318.912873,305.545371 318.37364,304.161084 317.927567,302.775699 C317.062821,300.074089 316.236436,297.363697 315.247842,294.7049 C314.198968,291.896806 313.192838,289.070051 312.092452,286.282815 C309.794136,280.447074 307.481572,274.614626 305.148184,268.787667 C302.690947,262.642355 300.161375,256.536563 297.57481,250.442846 C296.500728,247.903706 295.322526,245.426041 294.132268,242.929713 C292.955161,240.45095 291.791207,238.002925 290.468333,235.601006 C289.03805,233.006978 287.723944,230.305368 286.135837,227.805747 C284.29017,224.902148 282.441214,221.995255 280.595547,219.087264 C279.978498,218.114641 279.24308,217.201297 278.570135,216.265997 C277.393029,214.619343 276.211539,212.977081 275.030049,211.334818 C273.300558,208.920823 271.412146,206.608922 269.601551,204.259695 C262.138873,194.581762 254.077779,185.426367 246.011204,176.249016 C242.145605,171.850255 238.47619,167.279144 234.635799,162.85733 C232.007586,159.838465 229.305942,156.948038 226.330296,154.272775 C222.931594,151.219879 219.167923,148.449109 215.23766,146.133914 C210.523755,143.359851 205.378026,141.369596 200.351761,139.238826 C197.256651,137.925894 194.122086,136.726032 190.993,135.507508 C183.52265,132.605006 175.404563,131.04837 167.458549,130.272247 C165.53397,130.08343 163.607198,130 161.682618,130 C154.091709,130 146.527103,131.29427 139.053465,132.535847" id="Fill-40" fill="#000000"></path>
            <path d="M162.993388,15.0062633 C168.455256,14.6041269 173.934659,14.5482442 179.405294,14.5230422 C184.538399,14.5011274 189.666023,14.80136 194.794744,14.8440938 C197.251708,14.8605299 199.705385,14.847381 202.157965,14.9503805 C204.475753,15.0489971 206.784773,15.263762 209.091601,15.5081119 C212.124999,15.9803755 215.121136,16.6246703 218.111794,17.3259434 C221.41697,18.0995354 224.739679,18.9454462 227.92102,20.1496637 C229.50128,20.9342131 230.957705,21.9006552 232.390021,22.92298 C235.391638,25.3949679 238.338461,27.9370832 240.833781,30.9339303 C242.41404,33.1626641 243.730193,35.5524716 245.016756,37.9652896 C246.009624,39.8225678 246.986054,41.6929948 247.897826,43.5941026 C249.990958,47.9463792 251.989844,52.3424854 253.989826,56.7473576 C255.761865,60.6459981 257.594177,64.5161495 259.395805,68.4016412 C261.077981,72.0274427 262.649474,75.7113183 264.227542,79.3886195 C265.868075,83.4549082 267.389157,87.5463989 268.813802,91.694868 C270.188036,95.6932209 271.609393,99.690478 272.803903,103.748001 C274.203342,108.499127 275.453742,113.27655 276.647156,118.082463 C277.656462,122.152039 278.26358,126.335571 278.916724,130.479658 C279.139188,132.556084 279.362748,134.634701 279.588499,136.710031 C279.70795,137.857271 279.660827,139.051626 279.700279,140.203249 C279.738635,141.366924 279.772607,142.531695 279.810963,143.699753 C279.849319,144.868907 279.704662,146.075316 279.653156,147.244469 C279.60165,148.430059 279.550143,149.611266 279.494253,150.792473 C279.39672,152.95875 279.082202,155.138176 278.836725,157.301165 C278.671247,158.313628 278.506865,159.326091 278.338099,160.341842 C278.128786,161.638101 277.991801,162.978191 277.695913,164.262397 C277.071262,166.979831 276.442226,169.702743 275.817574,172.420177 C275.539221,173.618915 275.106348,174.804505 274.751282,175.981329 C274.301971,177.496737 273.848277,179.007761 273.394582,180.523169 C273.069106,181.623291 272.584727,182.697116 272.182539,183.772036 C271.727748,184.989402 271.275149,186.203482 270.821455,187.420848 C270.094886,189.041447 269.370509,190.658758 268.642844,192.276069 C267.854906,194.035826 266.943134,195.734222 266.078484,197.455629 C264.331651,200.938984 262.577146,204.414669 260.890586,207.924323 C258.861015,212.14511 256.891718,216.395483 254.742696,220.556006 C252.786549,224.339594 250.599172,228.089214 248.01399,231.482718 C246.96852,232.853488 245.926337,234.227545 244.883059,235.599411 C242.080893,238.944703 239.257904,242.233017 236.339575,245.47531 C232.691388,249.521875 228.668411,253.303271 224.402148,256.697872 C220.661908,259.49639 216.734272,261.99358 212.594036,264.167527 C209.430229,265.831955 206.289435,267.460224 203.017136,268.898929 C197.470884,271.153961 191.762443,272.909335 185.91592,274.216552 C183.776762,274.694295 181.600343,275.017538 179.433787,275.372557 C175.388892,275.765928 171.349477,276.082597 167.285952,276.301744 C164.923233,276.429946 162.564898,276.537328 160.197796,276.627179 C155.76496,276.802497 151.369383,276.689636 146.965039,276.202032 C142.797406,275.485419 138.63306,274.772092 134.552001,273.618279 C128.986023,272.034935 123.43758,270.428582 118.056807,268.289698 C114.269444,266.618696 110.695778,264.629929 107.35115,262.172186 C103.087079,258.734851 99.2438263,254.786903 95.5244078,250.778688 C91.2680079,246.185349 86.873527,241.665424 82.966713,236.766373 C80.8593348,233.896632 79.0774331,230.861434 77.6034738,227.618046 C75.8358185,223.173727 74.5426795,218.490537 73.7733714,213.771188 C73.4215937,211.616964 73.070912,209.466028 72.7202302,207.315091 C72.0813319,202.034724 71.4731182,196.75326 71.0807929,191.445499 C70.6523037,185.595346 70.2632661,179.744098 69.9038173,173.89285 C69.5399849,168.003251 69.0731398,162.109269 68.8287585,156.210904 C68.6917734,152.923686 68.5547884,149.640851 68.4221868,146.353633 C68.2852018,143.092713 68.4013651,139.801112 68.392598,136.534713 C68.375064,130.979315 68.7608139,125.406384 69.1114957,119.863039 C69.4577939,114.350375 70.0320353,108.854146 70.6007973,103.363396 C71.7372254,92.3972369 72.7268055,81.4190245 73.9640546,70.4638226 C74.400215,67.7518678 74.8341837,65.0421044 75.27144,62.332341 C75.711984,59.5897054 76.4834839,56.8667932 77.0949852,54.1570298 C77.6900483,51.5294469 78.610588,48.9566509 79.3853755,46.3805677 C79.8807135,44.7238098 80.5316665,43.0999241 81.1826195,41.4826129 C81.2209753,41.5056234 81.2593312,41.5297297 81.2987829,41.5527402 C82.4461698,42.2156625 83.6878024,42.5542459 85.0149137,42.5542459 C86.2094235,42.4172785 87.1716065,42.3055131 88.2466653,41.9121427 C89.4751474,41.4585066 90.6828077,40.931456 91.8685504,40.3671502 C93.3534685,39.6647813 94.7408533,38.7060094 96.1359092,37.8414711 C99.0213625,36.0521287 101.884898,34.2288185 104.718845,32.3583914 C107.531971,30.4923473 110.339617,28.6175373 113.130824,26.7131423 C114.761494,25.5954882 116.396548,24.4953659 118.071054,23.4467434 C119.331316,22.6567153 120.667194,21.9883143 122.015128,21.3593599 C123.913193,20.6734271 125.810162,20.1496637 127.796993,19.7058893 C130.018343,19.2095194 132.321884,18.9695524 134.569535,18.6232988 C139.164562,17.912164 143.751918,17.1473379 148.350232,16.4734582 C153.220325,15.8762803 158.101377,15.3623785 162.993388,15.0062633 M69.0927734,36.1376953 C68.6982565,37.5720181 64.0901711,52.5221867 63.8030504,53.7592764 C63.4392181,55.3470027 63.0753858,56.9314418 62.7115535,58.5147851 C62.4079946,59.8548743 62.2622424,61.2497505 62.0397787,62.6062758 C61.7570415,64.3101505 61.4786879,66.0140252 61.1959507,67.7211871 C60.6008876,71.3426056 60.3017122,75.0319599 59.8732229,78.6741975 C59.1806264,84.5385944 58.6962472,90.4369593 58.1011841,96.3134093 C57.5148881,102.100009 56.8683186,107.878938 56.3116112,113.665537 C55.7516163,119.490488 55.3702499,125.3253 55.1642244,131.172165 C54.9592947,136.898499 54.8223096,142.642364 55.0316228,148.374177 C55.4776462,160.487575 56.2305161,172.583442 56.937359,184.679308 C57.2705067,190.38044 57.6606402,196.11554 58.3324149,201.782704 C59.4074737,210.826936 60.459519,219.927051 63.3800406,228.598732 C65.80632,235.827325 69.731764,242.397378 74.7793897,248.099605 C76.9415619,250.538721 79.1201724,252.948252 81.3327552,255.332581 C85.2932673,259.596102 89.2910395,263.794976 93.4652483,267.848115 C94.4449655,268.798121 95.5276955,269.653894 96.5600149,270.549113 C99.1539641,272.800857 101.958322,274.811539 104.89857,276.584445 C110.310028,279.849748 116.362576,281.946994 122.351563,283.882069 C127.844116,285.658263 133.476942,287.293106 139.171137,288.273792 C140.750301,288.543344 142.333848,288.817279 143.914108,289.091214 C148.5716,289.891104 153.327721,290.045603 158.03672,289.98972 C160.942995,289.955752 163.853654,289.762902 166.755545,289.608403 C169.576342,289.459382 172.423439,289.356383 175.235469,289.078065 C176.840934,288.919183 178.446399,288.761396 180.056247,288.598131 C181.978422,288.41076 183.887445,288.02506 185.796469,287.699625 C192.226,286.599503 198.488957,284.823309 204.585341,282.508012 C207.817092,281.284071 211.109117,279.957131 214.169912,278.34749 C215.881677,277.448984 217.594538,276.544999 219.306304,275.646492 C225.274469,272.505008 230.78346,268.656771 235.959304,264.334079 C239.058454,261.744847 241.852949,258.842234 244.708814,255.992216 C245.654559,255.045497 246.510442,253.989204 247.401392,252.995369 C248.261659,252.04098 249.148226,251.104123 249.970136,250.119053 C252.123542,247.54297 254.289002,244.983323 256.318572,242.307527 C257.422124,240.852385 258.526771,239.397244 259.631419,237.937719 C261.583182,235.364923 263.257688,232.54449 264.832468,229.732823 C266.968339,225.918554 268.77983,221.930063 270.659265,217.991976 C273.172119,212.740097 275.757301,207.530952 278.360017,202.32619 C279.772607,199.501374 281.052595,196.629441 282.341351,193.74436 C283.72764,190.645609 284.827904,187.418657 286.01803,184.237725 C286.408164,183.18472 286.67775,182.072544 286.99446,180.997624 C287.499661,179.320047 288.000478,177.64247 288.501295,175.96051 C288.851977,174.778208 289.062386,173.533448 289.339644,172.330326 C289.695805,170.794099 290.046487,169.256777 290.401552,167.72055 C290.735796,166.278558 290.885931,164.771916 291.124833,163.312391 C291.411954,161.552634 291.746198,159.793972 291.925922,158.022162 C292.229481,155.102016 292.606464,152.18735 292.739065,149.259534 C292.82016,147.471288 292.901256,145.686328 292.983447,143.896986 C293.047008,142.501014 292.910023,141.076553 292.867283,139.680581 C292.833311,138.550874 292.850845,137.408017 292.730298,136.282693 C292.520985,134.31365 292.310576,132.344606 292.101263,130.379945 C291.939072,128.843719 291.694691,127.319545 291.454693,125.795372 C291.198257,124.203263 291.000999,122.594717 290.688673,121.010278 C290.080459,117.954261 289.468958,114.915776 288.714992,111.889344 C287.331991,106.303265 285.804333,100.747866 283.963254,95.2867016 C282.152859,89.9055257 280.427944,84.4531267 278.290977,79.1880992 C273.809921,68.1452382 268.659283,57.4146628 263.749738,46.560269 C261.21935,40.9698069 258.591428,35.4396104 255.710359,30.0255624 C253.441886,25.7587534 250.709856,21.632199 247.144956,18.3318321 C244.708814,16.0768006 242.238699,13.8119074 239.554888,11.8516297 C238.223393,10.8797089 236.874364,9.95600064 235.445336,9.12543023 C233.283164,7.86204277 230.774693,7.05338714 228.378003,6.32581622 C225.744602,5.5259265 223.085996,4.84875959 220.410951,4.21542225 C214.62799,2.83807791 208.775988,2.00312453 202.847274,1.61304133 C200.20949,1.44210599 197.564034,1.43334008 194.918579,1.41252103 C192.102166,1.3949892 189.285753,1.2667877 186.472628,1.15940524 C180.801446,0.941353113 175.098484,0.889853364 169.427302,1.09585236 C163.626807,1.30075562 157.848229,1.70289195 152.072938,2.31102729 C145.9645,2.95751349 139.91524,3.94587038 133.840774,4.85314255 C129.171227,5.55112851 124.444695,6.04749843 119.894599,7.36128989 C114.963136,8.78684677 88.0537109,11.8516297 69.0927734,36.1376953 Z" id="Fill-42" fill="#000000"></path>
            <path d="M304.501808,18.0207859 C306.423653,17.9487904 308.280245,18.0689632 310.204193,18.3017191 C312.788457,18.6091636 315.378908,19.3892158 317.72399,20.6053067 C319.060489,21.2983755 320.317169,22.1331762 321.447394,23.1040696 C322.935793,24.3835563 324.360807,25.8237282 325.470941,27.4042733 C326.449995,28.8044203 327.494248,30.4052751 327.971193,32.0063291 C328.271428,33.0173725 328.576003,34.1303409 328.703227,35.1571355 C328.845135,36.2668804 328.808962,37.2263275 328.699502,38.3505965 C328.524145,40.1708709 327.971718,41.8037201 327.311377,43.4895558 C326.029484,46.7550098 323.907218,49.6611657 321.716934,52.4091938 C319.656993,54.9999664 317.417705,57.5012122 314.925031,59.7354548 C312.20053,62.1751604 309.263049,64.5496228 306.021107,66.386045 C304.109409,67.4728014 302.136487,68.3609112 300.067111,69.1804582 C298.632064,69.7482854 297.165788,70.3196215 295.617201,70.6211069 C294.000728,70.9372267 292.371407,71.1296234 290.702816,71.1602565 C289.639175,71.1777577 288.587041,71.2232477 287.539051,71.3172472 C286.721834,71.4602186 285.928558,71.6411036 285.141456,71.8831407 C282.924069,72.9110507 280.831765,74.242581 278.875638,75.6563185 C278.075111,76.4326523 277.111063,76.9711987 275.984969,77.2692471 C275.406033,77.3445473 274.831071,77.4219086 274.25808,77.4956556 C272.42035,77.5162321 270.573565,76.8216393 269.197452,75.6003806 C267.868075,74.4126304 267.038441,72.7828304 266.916294,71.1084633 C266.79835,69.4988624 267.364454,67.5369926 268.650878,66.4655778 C269.780086,65.5258935 270.962902,64.6001006 272.173787,63.7560859 C273.530599,62.8127346 274.863259,61.7734094 276.33121,60.981571 C278.720226,59.6949597 281.212115,58.7410169 283.962645,58.2712195 C286.179932,57.8957808 288.402855,57.8419929 290.64882,57.7155463 C291.964461,57.4485688 293.226095,57.0585465 294.473105,56.6018309 C296.914428,55.5161959 299.166953,54.1970518 301.30817,52.6799464 C304.911339,49.8138845 308.123756,46.5446813 310.931433,42.9798246 C312.143141,41.273933 313.266004,39.546308 314.120463,37.6493626 C314.272765,37.1221793 314.399282,36.5955328 314.495004,36.0552347 C314.483532,35.900932 314.468093,35.7468905 314.450174,35.592722 C314.416577,35.4906916 314.381994,35.3904683 314.344931,35.2901179 C313.987177,34.6885121 313.596282,34.1102862 313.168239,33.5440895 C312.694418,33.0712135 312.200366,32.6260939 311.677149,32.2064154 C311.262733,31.9776038 310.848386,31.7673716 310.421681,31.5681163 C309.719251,31.3672769 309.016989,31.2128857 308.294506,31.0885733 C306.426516,30.9706031 304.596379,31.0333641 302.755794,31.2228345 C300.367049,31.6322155 298.085689,32.251431 295.850164,33.0647898 C292.090828,34.7186737 278.781258,46.2574116 274.676217,49.3894081 C274.776613,49.3151387 274.876509,49.2394505 274.975912,49.1646659 C273.764398,50.1080291 272.584843,51.1120076 271.167537,51.7852326 C269.742316,52.463625 268.256066,52.8611827 266.599315,52.7391715 C265.413655,52.7490296 262.482259,53.6579446 261.413077,53.1081344 C260.616128,52.8258283 259.899966,52.3953383 259.274019,51.818076 C258.532585,50.9850534 259.622347,49.026082 259.079337,48.074585 C258.229845,46.5747275 257.767788,45.1123617 258.117802,43.4556773 C258.454617,41.851258 259.491892,40.4512924 260.969135,39.623707 C262.395402,38.8241608 277.855114,28.4873494 279.421078,27.3754541 C282.151902,25.4455148 284.998257,23.5117407 288.11443,22.1351302 C291.565807,20.6159368 295.14265,19.2336651 298.978344,18.6648063 C300.797808,18.3948423 302.646403,18.0901475 304.501808,18.0207859 Z" id="Fill-44" fill="#000000"></path>
            <path d="M32.9952898,4.04064922 C34.6409415,4.48709904 36.2314563,5.14492503 37.803144,5.76532307 C41.1165455,7.07297314 44.0288233,9.06256239 46.8003062,11.1500051 C49.3015831,13.0391999 51.4453271,15.3763692 53.4865003,17.6861771 C54.6559086,19.015407 66.334114,31.5591567 67.4436252,32.5770735 C68.5929028,33.6308856 69.2292368,35.1112407 69.1962309,36.6315904 C69.1641422,38.2019272 68.4459566,39.4286119 67.373304,40.6090669 C66.6891547,41.3570899 67.2559507,43.353744 66.4189541,43.9536064 C65.7385889,44.3460993 65.0080933,44.587225 64.2361963,44.6776567 C63.1649722,44.9536582 60.7315529,43.5255616 59.6727478,43.2714301 C58.1649569,43.0391019 56.9180008,42.372251 55.7841763,41.4640958 C54.6563573,40.5622498 53.8101941,39.4105136 52.9228036,38.306975 C52.9961582,38.3951525 53.0697653,38.484249 53.1441164,38.5721662 C50.1238883,34.8912624 40.6199912,21.7054424 37.6010352,19.4325227 C35.7703258,18.2347462 33.8581456,17.2030313 31.8061542,16.3388363 C30.1987931,15.7868509 28.5743731,15.3515949 26.8784205,15.0719247 C26.2060772,15.034902 25.5455591,15.0292585 24.8752094,15.0655777 C24.4518933,15.1574901 24.0373463,15.2618835 23.6188667,15.383062 C23.0632596,15.6543168 22.5284459,15.954607 22.0059488,16.2841781 C21.504963,16.7075962 21.0347087,17.1495739 20.5892337,17.6195454 C20.5351588,17.7026153 20.4833293,17.7860832 20.4320047,17.8713888 C20.3838426,18.0070795 20.3379259,18.1431683 20.2955035,18.2803135 C20.2685491,18.7886394 20.2719938,19.2909907 20.2983973,19.7991603 C20.6675855,21.6910665 21.3122124,23.485387 22.0408623,25.2784316 C23.8100742,29.0823997 26.00304,32.7027511 28.629644,36.039404 C30.2293079,37.8539919 31.9698195,39.5126071 33.9279205,40.9991342 C34.9484904,41.6699953 35.9960445,42.2835779 37.117563,42.797075 C39.1007689,43.3759159 41.0785003,43.8842944 42.9841552,44.6823385 C45.3472609,45.6759857 47.3780508,47.053897 49.2474666,48.7113255 C50.3958803,49.7308941 51.3716657,50.9462553 52.3890634,52.0798338 C53.2965954,53.0934129 54.1619702,54.1751294 54.9764848,55.2583191 C55.9042136,56.4931327 56.0018684,58.384105 55.5608909,59.8150866 C55.1026548,61.3037596 54.0206893,62.6058135 52.5837087,63.4048166 C51.0979274,64.2244513 49.3007763,64.4705393 47.6607716,64.0718556 C47.1634619,63.8866688 46.6651423,63.6978066 46.1628369,63.5099859 C45.2173893,63.0075971 44.4670505,62.3212679 43.9125781,61.453755 C42.456979,59.7709108 40.862405,58.1342331 39.0926388,56.7462143 C38.4388277,56.3645801 37.7667481,56.0369617 37.0653458,55.7386726 C36.1472562,55.4369349 35.2153491,55.1782016 34.2673125,54.9423953 C32.780739,54.5695998 31.3630143,54.0586621 29.9825705,53.4385133 C28.6598162,52.8456367 27.4669477,52.0257892 26.3012898,51.2155731 C24.6205305,50.0465642 23.0403619,48.8355107 21.556372,47.4575065 C19.0383911,45.126546 16.9049544,42.3720668 14.9756757,39.6026441 C13.2110034,37.0669442 11.7286914,34.3422297 10.4255059,31.5736591 C9.03846893,28.6359428 7.74524606,25.5693176 7.27881901,22.3516266 C7.03932067,20.69075 6.88533384,19.1001014 7.1077888,17.417972 C7.24415267,16.3787876 7.41174065,15.50379 7.7699872,14.5297261 C8.09780848,13.6276276 8.60227163,12.6842918 9.08161092,11.8322175 C9.84201965,10.4832121 11.1099814,9.25171739 12.2777785,8.18821502 C13.6004538,6.9887095 15.1756111,5.98125057 16.773994,5.13218985 C17.9875922,4.48807688 19.2859716,3.99316976 20.6262307,3.64292253 C22.9779121,3.02836234 25.4582617,2.85880818 27.8345821,3.11529864 C29.6045259,3.30275502 31.2907396,3.57807646 32.9952898,4.04064922 Z" id="Fill-44" fill="#000000"></path>
            <path d="M182.665987,189.230099 C179.356054,190.177175 177.403988,193.802075 178.28778,197.223553 C178.301724,197.27024 178.314595,197.316927 178.327465,197.363614 C178.373586,198.96764 178.216991,200.578336 178.11617,202.177916 C178.006769,204.032051 177.89844,205.886185 177.793328,207.735874 C177.588469,211.352992 177.420076,214.956771 177.022155,218.556104 C176.841964,220.154573 177.789038,222.022047 178.841223,223.111406 C180.006028,224.318594 181.597713,225 183.239809,225 C184.881905,225 186.478952,224.318594 187.639467,223.111406 C187.961236,222.676774 188.288368,222.243253 188.61121,221.808621 C189.172161,220.801519 189.457463,219.719941 189.461753,218.556104 C189.872545,214.865621 190.039865,211.175137 190.286555,207.475761 C190.417408,205.573828 190.554696,203.671895 190.701637,201.769962 C190.773499,200.876243 190.861449,199.981412 190.936529,199.082134 C191.007318,198.22732 191.028769,197.393627 190.9494,196.533255 C190.919368,195.742914 190.793878,194.970358 190.576147,194.218922 C190.316587,193.541963 190.039865,192.877231 189.747055,192.218057 C189.189322,191.240968 188.4396,190.462854 187.496816,189.885938 C186.533653,189.301241 185.42784,189 184.319881,189 C183.76322,189 183.206559,189.0767 182.665987,189.230099" id="Fill-46" fill="#000000"></path>
            <path d="M148.445319,194.493274 C148.330578,202.813453 148.232228,211.133632 148.001654,219.454709 C147.916417,222.478027 151.139002,225 154.758263,225 C158.506471,225 161.435101,222.474439 161.515966,219.454709 C161.648191,214.721076 161.759654,209.984753 161.840519,205.252018 C161.870024,203.566816 161.887508,201.881614 161.908271,200.192825 C161.934497,198.319283 162.138846,196.356951 161.836148,194.493274 C161.755283,194.006278 161.677696,193.519283 161.596831,193.032287 C161.276649,192.104036 160.705129,191.295067 159.876808,190.608072 C158.625584,189.584753 156.909931,189 155.142919,189 C151.459184,189 148.487937,191.501345 148.445319,194.493274" id="Fill-48" fill="#000000"></path>
            <path d="M151.571576,77.5217668 C150.138175,78.0015844 148.398528,79.340159 147.775402,81.0731928 C147.230965,82.5889508 146.686528,84.1047087 146.25906,85.676079 C145.723129,87.6160422 145.524282,89.8185471 145.420074,91.8438688 C145.332878,93.5109438 145.274394,95.1780189 145.204213,96.845094 C145.06704,100.326681 144.862876,103.801802 144.668282,107.278216 C144.555567,109.313884 145.432834,111.511216 146.587636,112.91575 C147.81262,114.406935 149.490592,115.250172 151.222796,115.250172 C152.954999,115.250172 154.632972,114.406935 155.853702,112.91575 C157.145677,111.344379 157.651833,109.445802 157.776246,107.278216 C157.947446,104.2467 158.113329,101.215185 158.262199,98.1797887 C158.390864,95.6772361 158.396181,93.1630438 158.566318,90.668251 C158.766228,89.4305545 159.03951,88.2316572 159.384037,87.0250001 C160.305965,83.7813815 158.798129,79.9674138 156.464067,78.3042186 C155.487908,77.6084185 154.368197,77.2501719 153.245295,77.2501719 C152.681717,77.2501719 152.119203,77.3394102 151.571576,77.5217668" id="Fill-50" stroke="#000000" stroke-width="3" fill="#000000" transform="translate(152.158522, 96.250172) rotate(-2.000000) translate(-152.158522, -96.250172) "></path>
            <path d="M187.456163,78.2970197 C186.382186,79.0513973 185.441922,79.744013 184.769082,80.9340327 C184.234232,81.8770047 183.879093,83.0493781 183.690826,84.1258 C183.420192,85.6720536 183.277922,87.240365 183.122816,88.8042648 C182.977337,90.2611842 182.82651,91.7214122 182.701355,93.1816403 C182.435,96.2807648 182.154739,99.3765806 181.863781,102.475705 C181.65412,104.038502 181.44125,105.602402 181.209126,107.16189 C181.134247,107.738702 181.059368,108.316617 180.983419,108.889018 C180.987698,110.065803 181.276517,111.159871 181.844527,112.172325 C182.671403,113.628142 184.038478,114.714489 185.613073,115.162263 C187.243294,115.623272 189.018993,115.38615 190.472713,114.507146 C191.747793,113.736225 193.138401,112.19328 193.372664,110.62166 C194.020902,106.269651 194.538636,101.918745 194.956888,97.5369579 C195.082042,96.2355462 195.202918,94.9330316 195.325933,93.6327228 C195.62117,93.1353188 195.838319,92.6026224 195.934592,92.0611027 C196.414886,89.3821798 196.949735,86.6591413 196.982896,83.9316912 C197.012848,81.6398831 195.754882,79.4473353 193.84975,78.2970197 C192.890231,77.7191046 191.700726,77.3926488 190.521919,77.3926488 C189.426548,77.3926488 188.339734,77.6738861 187.456163,78.2970197" id="Fill-52" stroke="#000000" stroke-width="3" fill="#000000" transform="translate(188.983419, 96.392649) rotate(-3.000000) translate(-188.983419, -96.392649) "></path>
            <path d="M172.929565,305.928955 C169.658028,307.824023 168.477406,312.161696 170.421571,315.410853 C170.599216,315.70484 170.76362,316.003199 170.921404,316.304836 C171.406894,317.920124 171.720255,319.559457 171.986171,321.225018 C172.348081,323.482926 172.791642,325.728811 173.321267,327.952838 C174.274592,331.940787 175.803884,335.817262 177.838526,339.385542 C178.649515,340.803018 179.545463,342.1735 180.31673,343.616112 C180.980968,344.863098 181.59114,346.10899 182.175934,347.385484 C182.619495,348.522087 183.040988,349.658691 183.409518,350.818246 C182.157176,350.801852 180.905937,350.7177 179.639251,350.593111 C174.055018,349.799674 168.476303,348.929735 162.825867,348.76908 C159.852244,348.683835 156.874207,348.616076 153.89617,348.517716 C152.666999,348.475093 151.438931,348.461979 150.210864,348.529738 C148.904456,348.59859 147.611288,348.811703 146.318121,348.995308 C146.077583,349.080553 145.831528,349.16252 145.589886,349.247765 C144.701661,349.469622 143.905017,349.861968 143.197747,350.417156 C141.569151,351.56141 139.801527,353.337353 139.374517,355.377775 C139.138393,356.504543 138.917716,357.606174 139.030261,358.7548 C139.116325,359.408347 139.206803,360.060801 139.292867,360.714348 C139.598505,361.610517 139.995723,362.460784 140.48673,363.262964 C141.284477,364.667325 142.516958,365.542729 143.771507,366.490263 C144.533947,367.066215 145.309626,367.60938 146.116201,368.133966 C147.744798,369.197347 149.413116,370.221383 151.090262,371.207168 C154.615577,373.278191 158.395775,375.109872 162.481611,375.690196 C164.787686,376.019155 166.903979,376.108772 169.214467,375.848664 C171.554747,375.583093 173.847582,375.161238 176.067593,374.362336 C178.717924,373.406059 181.360532,372.429017 184.00645,371.463997 C188.924238,369.661824 194.285587,367.788614 197.001018,362.967884 C197.583605,361.934012 197.917931,360.808337 198.008408,359.676105 C198.362595,359.061901 198.620787,358.397425 198.773054,357.682676 C199.139378,355.971214 199.014696,355.301273 198.734436,353.588717 C198.583272,352.645555 198.311839,351.762501 198.013925,350.856497 C197.660842,349.789838 197.414787,348.692578 197.091495,347.612804 C196.182306,344.53851 194.877001,341.622684 193.561766,338.698115 C193.010073,337.481731 192.299493,336.290483 191.609877,335.146229 C190.480011,333.283947 189.367799,331.433687 188.442058,329.471953 C187.201853,326.170338 186.444931,322.760526 185.781797,319.294978 C185.43754,317.511384 185.191486,315.717955 184.790957,313.942011 C184.347396,311.999949 183.527581,310.125646 182.502536,308.41309 C181.200541,306.237149 178.824953,305 176.404126,305 C175.21578,305 174.017503,305.298358 172.929565,305.928955" id="Fill-54" fill="#000000"></path>
            <path d="M168.278134,302.248431 C165.858066,302.565318 163.434741,302.867852 160.999473,303.059972 C159.180893,303.206822 157.365571,303.310611 155.558934,303.595478 C154.209385,303.810785 152.898922,304.112215 151.576516,304.462226 C150.384397,304.781322 149.209649,305.182124 148.030558,305.553114 C146.915524,305.898709 145.761405,306.260866 144.777743,306.899057 C142.606305,308.309041 141.5499,310.396965 141.020069,312.881274 C140.392523,315.813862 139.611891,318.729889 138.924631,321.649228 C137.593539,327.325598 136.588163,333.088091 135.400387,338.794273 C134.866213,341.364705 134.263639,343.921887 133.678436,346.483485 C132.983576,349.550779 132.173629,352.651197 132.007514,355.809029 C131.846828,358.979008 134.285353,361.929263 137.199423,362.744116 C138.454515,363.085295 139.705263,363.085295 140.960354,362.744116 C142.581333,362.29142 144.455284,361.053682 145.184888,359.440537 C145.676718,358.357378 146.066492,357.391258 146.308607,356.257309 C146.486665,355.41154 146.66038,354.566875 146.838438,353.716689 C147.211925,351.957798 147.606041,350.197803 147.9969,348.437809 C148.768847,344.978546 149.519079,341.511555 150.19331,338.025793 C150.969599,334.002317 151.766517,329.982153 152.580807,325.966405 C152.938008,324.203098 153.365781,322.451936 153.759898,320.696358 L154.2691,318.445022 C154.285386,318.375461 154.300586,318.3059 154.315786,318.235236 C155.577391,317.860933 156.857454,317.547358 158.147289,317.304448 C159.926782,317.158702 161.70519,317.029518 163.481427,316.861689 C166.310811,316.590071 169.126081,316.163874 171.938093,315.775218 C173.595986,315.542245 175.259308,313.946766 176.060569,312.548928 C176.993202,310.931367 177.244003,308.956065 176.756515,307.148592 C176.28097,305.394118 175.127936,303.875929 173.588386,302.957287 C173.036841,302.719898 172.489639,302.486925 171.938093,302.249535 C171.327919,302.083914 170.716659,302 170.106485,302 C169.496311,302 168.887222,302.083914 168.278134,302.248431" id="Fill-56" fill="#000000"></path>
        </g>
        <g id="logo-footer" transform="translate(470.000000, 707.000000)">
            <g>
                <path d="M110.812545,8.25651402 C110.904572,8.56348079 110.810146,8.81874549 110.573746,9.09365441 C110.548096,9.12348237 110.524607,9.14951827 110.482164,9.19539003 C110.410296,9.27306357 110.388406,9.29969141 110.394575,9.28699974 C110.158488,9.77253772 109.949286,10.3963755 109.78094,11.1092981 C109.323962,13.0450464 110.241419,14.6677006 112.137009,15.2172501 C114.194676,15.8138908 116.608374,14.6870388 117.500673,12.7424366 C118.556971,10.4412591 118.361229,8.87677042 116.832238,7.67717368 C114.960938,6.20902274 112.357851,6.27012948 111.072216,7.83985899 L110.795491,8.1777337 C110.794947,8.20051389 110.804056,8.228204 110.812545,8.25651402 Z M110.106083,6.26944954 C110.423589,5.88663707 110.955421,5.49967933 111.419965,5.30848582 C112.37958,4.91358991 113.68037,4.90617957 115.133698,5.23840657 C117.932917,5.87841333 120.108577,8.22064492 119.995807,10.6570534 C119.760531,15.7499925 113.426094,19.0246323 109.732148,15.5763745 C107.943744,13.9068501 107.553768,11.8021869 108.499361,9.2850154 C108.62423,8.95356867 108.851111,8.49010331 109.049811,8.18524994 C109.270059,7.84733807 109.481086,7.64146186 109.750777,7.55562368 C109.778602,7.54676715 109.806094,7.5393618 109.833231,7.53336632 C109.647627,7.16965375 109.747904,6.70130236 110.106083,6.26944954 Z" id="Fill-4" fill="#000000" fill-rule="nonzero"></path>
                <path d="M116,2.36382675 C116.035222,2.23410526 116.077249,2.03952302 116.14169,1.8509661 C116.280178,1.44230796 116.378641,1.03435869 116.377039,0.600890425 C116.376639,0.410561355 116.256963,0.110004457 116.623996,0.0412449782 C116.938196,-0.017590452 117.272408,-0.0501980398 117.512961,0.20711836 C117.655051,0.358460099 117.796741,0.518308165 117.8896,0.694814455 C118.216208,1.3175485 117.776729,2.53572545 117.114308,2.89086461 C116.612389,3.15987721 116.012808,2.911776 116,2.36382675" id="Fill-103" fill="#000000" fill-rule="nonzero"></path>
                <path d="M113.597281,1.30015424 C113.547641,1.6054057 113.484683,1.90995301 113.451993,2.21696486 C113.409214,2.61727733 113.068594,2.79366831 112.724342,2.93802021 C112.426905,3.06335991 112.146418,3.01090032 112.073774,2.6669203 C111.908307,1.88389925 112.059649,1.1040469 112.154086,0.329475719 C112.197269,-0.0278832593 112.773982,-0.106396611 113.167067,0.152380579 C113.512933,0.380527 113.619074,0.676272361 113.597281,1.30015424" id="Fill-107" fill="#000000" fill-rule="nonzero"></path>
                <path d="M112.19066,11.6823452 C110.632914,12.6206952 108.591708,13.9682577 107.051494,14.9237702 C106.603919,15.2015633 106.260092,15.3386205 105.847581,15.6483439 C105.453117,15.9444969 105.00264,16.1407116 104.673147,15.8744932 C104.334372,15.6006913 103.968388,15.4738054 104.253536,15.0032335 C104.507231,14.584149 104.804932,14.5525935 105.343775,14.3418539 C106.408054,13.9255633 108.032176,12.8044553 108.976827,12.2352987 C109.267132,12.0600815 109.780582,11.6912496 110.031699,11.4841022 C110.690685,10.9400907 110.546085,10.7856194 109.803565,10.2635599 C108.494872,9.34277154 106.87805,8.31351987 105.559045,7.40151231 C105.221301,7.16842154 104.87376,6.94291422 104.554064,6.69585398 C103.681603,6.022525 103.837029,5.29651112 105.037953,5.02270928 C105.314335,4.95964705 105.519044,5.02949445 105.664454,5.21269422 C106.875175,6.74015718 109.059218,7.93310366 110.770108,9.0590438 C111.354328,9.44340412 111.803432,9.85804585 112.62433,10.0292717 C113.067264,10.1214703 112.94712,10.4970498 112.994043,10.9392837 C113.057467,11.2214672 112.602656,11.4340876 112.19066,11.6823452 Z" id="chevron" fill="#000000" fill-rule="nonzero" transform="translate(108.500000, 10.500000) rotate(-2.000000) translate(-108.500000, -10.500000) "></path>
                <path d="M4.80555555,7.71270718 L2.78703703,7.71270718 L2.78703703,12.9005525 L2.01851852,12.9005525 L2.01851852,7.71270718 L0,7.71270718 L0,7.09944751 L4.80555555,7.09944751 L4.80555555,7.71270718 Z M9.97657951,10.2403315 L6.8654684,10.2403315 L6.8654684,12.9005525 L6.09694989,12.9005525 L6.09694989,7.09944751 L6.8654684,7.09944751 L6.8654684,9.62707182 L9.97657951,9.62707182 L9.97657951,7.09944751 L10.745098,7.09944751 L10.745098,12.9005525 L9.97657951,12.9005525 L9.97657951,10.2403315 Z M12.6568627,7.09944751 L16.1846405,7.09944751 L16.1846405,7.71270718 L13.4253813,7.71270718 L13.4253813,9.61049724 L15.953159,9.61049724 L15.953159,10.2237569 L13.4253813,10.2237569 L13.4253813,12.2872928 L16.2309368,12.2872928 L16.2309368,12.9005525 L12.6568627,12.9005525 L12.6568627,7.09944751 Z M20.7674291,7.09944751 C20.8847137,7.08287284 21.0158852,7.07044203 21.1609477,7.0621547 C21.3060102,7.05386736 21.4572432,7.04834254 21.6146514,7.04558011 C21.7720596,7.04281768 21.926379,7.04005525 22.0776143,7.03729282 C22.2288497,7.03453039 22.3692805,7.03314917 22.4989106,7.03314917 C23.0174317,7.03314917 23.4665011,7.10497164 23.8461328,7.24861878 C24.2257645,7.39226593 24.539033,7.59254015 24.7859476,7.84944751 C25.0328623,8.10635488 25.2165027,8.41436285 25.3368736,8.77348066 C25.4572445,9.13259848 25.5174291,9.52762215 25.5174291,9.95856354 C25.5174291,10.3508307 25.4603309,10.7278988 25.3461328,11.089779 C25.2319348,11.4516593 25.0513808,11.7720981 24.8044662,12.051105 C24.5575516,12.3301119 24.236567,12.5538666 23.8415032,12.7223757 C23.4464394,12.8908848 22.9680495,12.9751381 22.406318,12.9751381 C22.3075521,12.9751381 22.179467,12.9737569 22.0220588,12.9709945 C21.8646506,12.968232 21.7026152,12.9627072 21.5359477,12.9544199 C21.3692802,12.9461326 21.2149607,12.9392266 21.0729847,12.9337017 C20.9310087,12.9281767 20.8291578,12.9198895 20.7674291,12.9088398 L20.7674291,7.09944751 Z M22.5174291,7.64640884 L22.2535402,7.64640884 C22.1578608,7.64640884 22.0637259,7.64917122 21.9711328,7.65469613 C21.8785398,7.66022104 21.7936641,7.66574581 21.7165032,7.67127072 C21.6393424,7.67679563 21.5791578,7.6823204 21.5359477,7.6878453 L21.5359477,12.3287293 C21.566812,12.3342542 21.6254534,12.3383978 21.7118736,12.3411602 C21.7982938,12.3439227 21.887799,12.3466851 21.9803921,12.3494475 C22.0729851,12.3522099 22.1624904,12.3549724 22.2489106,12.3577348 C22.3353309,12.3604972 22.3939723,12.3618785 22.4248365,12.3618785 C22.8569374,12.3618785 23.2195881,12.2955808 23.5127995,12.1629834 C23.8060109,12.0303861 24.0405762,11.852211 24.2165032,11.628453 C24.3924302,11.404695 24.5174286,11.1477915 24.5915032,10.8577348 C24.6655778,10.5676781 24.7026143,10.2679574 24.7026143,9.95856354 C24.7026143,9.68784397 24.6686642,9.41574724 24.6007625,9.14226519 C24.5328607,8.86878315 24.4155783,8.62154807 24.2489106,8.40055249 C24.0822429,8.17955691 23.8584801,7.99861948 23.5776143,7.85773481 C23.2967486,7.71685014 22.9433571,7.64640884 22.5174291,7.64640884 Z M26.892157,10 C26.892157,9.03314434 27.1205495,8.29143904 27.5773422,7.77486188 C28.0341344,7.25828471 28.6853622,7 29.5310459,7 C29.9878381,7 30.3828957,7.07182247 30.7162311,7.21546961 C31.0495659,7.35911676 31.3257979,7.56215336 31.5449348,7.82458564 C31.7640716,8.08701791 31.9261071,8.40193186 32.0310459,8.76933702 C32.1359847,9.13674217 32.1884533,9.54695907 32.1884533,10 C32.1884533,10.9668557 31.9585171,11.708561 31.4986385,12.2251381 C31.0387594,12.7417153 30.3829019,13 29.5310459,13 C29.080426,13 28.6899981,12.9281775 28.3597496,12.7845304 C28.0295006,12.6408832 27.7548124,12.4378466 27.5356755,12.1754144 C27.3165387,11.9129821 27.1545032,11.5980681 27.0495644,11.230663 C26.9446256,10.8632578 26.892157,10.4530409 26.892157,10 Z M27.7069718,10 C27.7069718,10.3204436 27.7424651,10.624308 27.8134533,10.9116022 C27.884441,11.1988965 27.9940078,11.4516564 28.142157,11.6698895 C28.2903057,11.8881227 28.4801184,12.0621541 28.7116014,12.191989 C28.943084,12.3218238 29.2162295,12.3867403 29.5310459,12.3867403 C30.1051225,12.3867403 30.5557352,12.1919909 30.8828977,11.8024862 C31.2100598,11.4129815 31.3736385,10.8121587 31.3736385,10 C31.3736385,9.68508131 31.3381447,9.38259816 31.267157,9.09254144 C31.1961688,8.80248476 31.0850587,8.54834365 30.9338237,8.3301105 C30.7825881,8.11187735 30.5912321,7.93784595 30.3597496,7.80801105 C30.1282666,7.67817615 29.8520351,7.61325967 29.5310459,7.61325967 C28.9631416,7.61325967 28.5171585,7.80800912 28.1930829,8.19751381 C27.8690068,8.58701851 27.7069718,9.18784125 27.7069718,10 Z M33.5631807,10 C33.5631807,9.03314434 33.7915737,8.29143904 34.2483658,7.77486188 C34.7051585,7.25828471 35.3563864,7 36.2020695,7 C36.6588622,7 37.0539198,7.07182247 37.3872547,7.21546961 C37.7205896,7.35911676 37.9968216,7.56215336 38.2159584,7.82458564 C38.4350953,8.08701791 38.5971308,8.40193186 38.7020695,8.76933702 C38.8070083,9.13674217 38.8594769,9.54695907 38.8594769,10 C38.8594769,10.9668557 38.6295412,11.708561 38.1696621,12.2251381 C37.7097835,12.7417153 37.053926,13 36.2020695,13 C35.7514502,13 35.3610217,12.9281775 35.0307732,12.7845304 C34.7005248,12.6408832 34.425836,12.4378466 34.2066992,12.1754144 C33.9875623,11.9129821 33.8255268,11.5980681 33.7205881,11.230663 C33.6156493,10.8632578 33.5631807,10.4530409 33.5631807,10 Z M34.3779955,10 C34.3779955,10.3204436 34.4134893,10.624308 34.484477,10.9116022 C34.5554651,11.1988965 34.665032,11.4516564 34.8131807,11.6698895 C34.9613298,11.8881227 35.1511426,12.0621541 35.3826251,12.191989 C35.6141076,12.3218238 35.8872532,12.3867403 36.2020695,12.3867403 C36.7761467,12.3867403 37.2267594,12.1919909 37.5539214,11.8024862 C37.8810834,11.4129815 38.0446621,10.8121587 38.0446621,10 C38.0446621,9.68508131 38.0091688,9.38259816 37.9381806,9.09254144 C37.867193,8.80248476 37.7560829,8.54834365 37.6048473,8.3301105 C37.4536122,8.11187735 37.2622558,7.93784595 37.0307732,7.80801105 C36.7992907,7.67817615 36.5230587,7.61325967 36.2020695,7.61325967 C35.6341657,7.61325967 35.1881822,7.80800912 34.8641066,8.19751381 C34.540031,8.58701851 34.3779955,9.18784125 34.3779955,10 Z M40.5027233,7.09944751 C40.6200078,7.08287284 40.7511791,7.07044203 40.8962419,7.0621547 C41.0413041,7.05386736 41.1925371,7.04834254 41.3499456,7.04558011 C41.5073535,7.04281768 41.6616729,7.04005525 41.8129085,7.03729282 C41.9641436,7.03453039 42.1045747,7.03314917 42.2342048,7.03314917 C42.7527259,7.03314917 43.2017954,7.10497164 43.581427,7.24861878 C43.9610587,7.39226593 44.2743267,7.59254015 44.5212419,7.84944751 C44.7681565,8.10635488 44.9517969,8.41436285 45.0721678,8.77348066 C45.1925387,9.13259848 45.2527233,9.52762215 45.2527233,9.95856354 C45.2527233,10.3508307 45.1956251,10.7278988 45.081427,11.089779 C44.967229,11.4516593 44.786675,11.7720981 44.5397604,12.051105 C44.2928452,12.3301119 43.9718612,12.5538666 43.5767974,12.7223757 C43.1817336,12.8908848 42.7033432,12.9751381 42.1416122,12.9751381 C42.0428463,12.9751381 41.9147609,12.9737569 41.757353,12.9709945 C41.5999445,12.968232 41.437909,12.9627072 41.2712419,12.9544199 C41.1045742,12.9461326 40.9502547,12.9392266 40.8082789,12.9337017 C40.6663026,12.9281767 40.5644517,12.9198895 40.5027233,12.9088398 L40.5027233,7.09944751 Z M42.2527233,7.64640884 L41.9888344,7.64640884 C41.8931549,7.64640884 41.7990201,7.64917122 41.706427,7.65469613 C41.6138339,7.66022104 41.5289584,7.66574581 41.4517974,7.67127072 C41.3746364,7.67679563 41.3144517,7.6823204 41.2712419,7.6878453 L41.2712419,12.3287293 C41.3021061,12.3342542 41.3607475,12.3383978 41.4471678,12.3411602 C41.533588,12.3439227 41.6230932,12.3466851 41.7156863,12.3494475 C41.8082794,12.3522099 41.8977846,12.3549724 41.9842048,12.3577348 C42.0706251,12.3604972 42.1292665,12.3618785 42.1601307,12.3618785 C42.5922316,12.3618785 42.9548823,12.2955808 43.2480937,12.1629834 C43.5413051,12.0303861 43.7758705,11.852211 43.9517974,11.628453 C44.1277244,11.404695 44.2527228,11.1477915 44.3267974,10.8577348 C44.400872,10.5676781 44.4379085,10.2679574 44.4379085,9.95856354 C44.4379085,9.68784397 44.4039584,9.41574724 44.3360567,9.14226519 C44.2681549,8.86878315 44.150872,8.62154807 43.9842048,8.40055249 C43.8175371,8.17955691 43.5937743,7.99861948 43.3129085,7.85773481 C43.0320428,7.71685014 42.6786513,7.64640884 42.2527233,7.64640884 Z M50.7293025,12.9005525 L46.8959692,12.9005525 L46.8959692,7.09944751 L47.6644877,7.09944751 L47.6644877,12.2872928 L50.7293025,12.2872928 L50.7293025,12.9005525 Z M52.0206971,7.09944751 L55.5484749,7.09944751 L55.5484749,7.71270718 L52.7892156,7.71270718 L52.7892156,9.61049724 L55.3169934,9.61049724 L55.3169934,10.2237569 L52.7892156,10.2237569 L52.7892156,12.2872928 L55.5947712,12.2872928 L55.5947712,12.9005525 L52.0206971,12.9005525 L52.0206971,7.09944751 Z M63.9645968,12.9005525 L60.1312634,12.9005525 L60.1312634,7.09944751 L60.8997819,7.09944751 L60.8997819,12.2872928 L63.9645968,12.2872928 L63.9645968,12.9005525 Z M65.4319172,7.09944751 L66.2004357,7.09944751 L66.2004357,12.9005525 L65.4319172,12.9005525 L65.4319172,7.09944751 Z M72.1955335,8.42541436 C72.1955335,8.5635366 72.1708426,8.70441915 72.1214594,8.8480663 C72.0720767,8.99171344 71.9980031,9.12569001 71.8992372,9.25 C71.8004712,9.37431004 71.6739296,9.48342495 71.5196075,9.57734807 C71.365286,9.67127118 71.1831888,9.74309369 70.9733113,9.79281768 L70.9733113,9.82596685 C71.1584975,9.8535913 71.3359651,9.90055216 71.5057187,9.96685083 C71.6754728,10.0331495 71.8251626,10.1243088 71.9547927,10.2403315 C72.0844234,10.3563542 72.1893606,10.4972367 72.2696075,10.6629834 C72.349855,10.8287301 72.3899779,11.0248607 72.3899779,11.2513812 C72.3899779,11.5497252 72.3205345,11.8080099 72.1816446,12.0262431 C72.0427552,12.2444762 71.8606585,12.4226512 71.6353483,12.5607735 C71.4100386,12.6988957 71.1523251,12.8011047 70.8622001,12.8674033 C70.5720757,12.933702 70.2757819,12.9668508 69.9733113,12.9668508 L69.6029409,12.9668508 C69.4609651,12.9668508 69.3128185,12.9627072 69.1584964,12.9544199 C69.0041749,12.9461326 68.8498555,12.935083 68.6955335,12.9212707 C68.541212,12.9074585 68.4054111,12.8867405 68.2881261,12.859116 L68.2881261,7.14917127 C68.5165227,7.11602192 68.7819517,7.08839788 69.0844224,7.06629834 C69.386893,7.0441988 69.7171369,7.03314917 70.0751631,7.03314917 C70.3159054,7.03314917 70.5612732,7.05110479 70.8112742,7.08701657 C71.0612758,7.12292836 71.288125,7.19198844 71.4918298,7.2941989 C71.6955345,7.39640935 71.8637428,7.53867311 71.9964594,7.72099448 C72.1291765,7.90331584 72.1955335,8.13812012 72.1955335,8.42541436 Z M70.0473853,12.3701657 C70.2449172,12.3701657 70.4362737,12.3494477 70.6214594,12.308011 C70.8066456,12.2665744 70.9702243,12.2002767 71.1122001,12.109116 C71.2541765,12.0179553 71.3668298,11.906078 71.4501631,11.7734807 C71.533497,11.6408833 71.5751631,11.4834263 71.5751631,11.301105 C71.5751631,11.0745845 71.5242377,10.8922659 71.4223853,10.7541436 C71.320533,10.6160214 71.1878185,10.5082877 71.0242372,10.4309392 C70.8606564,10.3535908 70.677016,10.3011051 70.4733113,10.2734807 C70.2696065,10.2458562 70.0659049,10.2320442 69.8622001,10.2320442 L69.0566446,10.2320442 L69.0566446,12.3121547 C69.099855,12.3232045 69.1615829,12.3314917 69.2418298,12.3370166 C69.3220772,12.3425415 69.4084964,12.3480663 69.501089,12.3535912 C69.5936821,12.3591161 69.6893601,12.3632597 69.7881261,12.3660221 C69.886892,12.3687845 69.9733113,12.3701657 70.0473853,12.3701657 Z M69.5381261,9.6519337 C69.6430649,9.6519337 69.769607,9.64917132 69.9177557,9.64364641 C70.0659049,9.6381215 70.1893601,9.6298343 70.2881261,9.61878453 C70.4362752,9.57458541 70.5751626,9.52071855 70.7047927,9.45718232 C70.8344234,9.39364609 70.9501626,9.31906119 71.052015,9.23342541 C71.1538673,9.14778964 71.2341137,9.04834309 71.2927557,8.93508287 C71.3513982,8.82182265 71.3807187,8.69889567 71.3807187,8.56629834 C71.3807187,8.38397698 71.3421389,8.23342601 71.2649779,8.11464088 C71.1878174,7.99585576 71.0844234,7.90055285 70.9547927,7.82872928 C70.8251626,7.75690571 70.677016,7.70580124 70.5103483,7.67541436 C70.3436811,7.64502749 70.1739296,7.62983425 70.001089,7.62983425 C69.7973843,7.62983425 69.610658,7.63397785 69.4409038,7.64226519 C69.2711502,7.65055253 69.1430649,7.66298333 69.0566446,7.67955801 L69.0566446,9.6519337 L69.5381261,9.6519337 Z M74.0332243,7.15745856 C74.2677932,7.11878435 74.5378524,7.08839788 74.8434095,7.06629834 C75.1489666,7.0441988 75.428285,7.03314917 75.6813725,7.03314917 C75.9653246,7.03314917 76.2353838,7.0607732 76.4915576,7.1160221 C76.747732,7.17127099 76.9730381,7.26243029 77.1674836,7.38950276 C77.361929,7.51657523 77.5177917,7.68231943 77.6350762,7.88674033 C77.7523606,8.09116123 77.8110021,8.33977753 77.8110021,8.63259669 C77.8110021,9.08563762 77.6721147,9.45303725 77.3943354,9.73480663 C77.1165561,10.016576 76.7647078,10.2044194 76.3387799,10.2983425 L76.7832243,10.6049724 L78.3943354,12.9005525 L77.4961873,12.9005525 L75.7091502,10.3977901 L74.8017428,10.2734807 L74.8017428,12.9005525 L74.0332243,12.9005525 L74.0332243,7.15745856 Z M75.699891,7.62983425 L75.449891,7.62983425 C75.3634707,7.62983425 75.2801384,7.63259664 75.199891,7.63812155 C75.1196436,7.64364645 75.0440273,7.64917122 74.9730391,7.65469613 C74.902051,7.66022104 74.8449527,7.66850824 74.8017428,7.67955801 L74.8017428,9.81767956 L75.5239651,9.81767956 C75.949893,9.81767956 76.3017413,9.72375783 76.5795206,9.5359116 C76.8572999,9.34806538 76.9961873,9.0552506 76.9961873,8.65745856 C76.9961873,8.35911455 76.8819908,8.11326064 76.6535947,7.9198895 C76.4251986,7.72651837 76.1073004,7.62983425 75.699891,7.62983425 Z M82.722767,11.2928177 L80.3338781,11.2928177 L79.68573,12.9005525 L78.9264707,12.9005525 L81.3801744,7.00828729 L81.7320263,7.00828729 L84.1949892,12.9005525 L83.3894337,12.9005525 L82.722767,11.2928177 Z M80.5838781,10.6961326 L82.4912855,10.6961326 L81.7690633,8.93093923 L81.5375818,8.05248619 L81.5283226,8.05248619 L81.2968411,8.94751381 L80.5838781,10.6961326 Z M85.3937907,7.15745856 C85.6283596,7.11878435 85.8984187,7.08839788 86.2039758,7.06629834 C86.5095329,7.0441988 86.7888514,7.03314917 87.0419388,7.03314917 C87.325891,7.03314917 87.5959501,7.0607732 87.852124,7.1160221 C88.1082984,7.17127099 88.3336044,7.26243029 88.5280499,7.38950276 C88.7224954,7.51657523 88.878358,7.68231943 88.9956425,7.88674033 C89.112927,8.09116123 89.1715684,8.33977753 89.1715684,8.63259669 C89.1715684,9.08563762 89.0326811,9.45303725 88.7549018,9.73480663 C88.477123,10.016576 88.1252742,10.2044194 87.6993462,10.2983425 L88.1437906,10.6049724 L89.7549018,12.9005525 L88.8567536,12.9005525 L87.0697166,10.3977901 L86.1623092,10.2734807 L86.1623092,12.9005525 L85.3937907,12.9005525 L85.3937907,7.15745856 Z M87.0604573,7.62983425 L86.8104573,7.62983425 C86.7240371,7.62983425 86.6407047,7.63259664 86.5604573,7.63812155 C86.4802099,7.64364645 86.4045936,7.64917122 86.3336055,7.65469613 C86.2626178,7.66022104 86.2055196,7.66850824 86.1623092,7.67955801 L86.1623092,9.81767956 L86.8845314,9.81767956 C87.3104594,9.81767956 87.6623081,9.72375783 87.9400869,9.5359116 C88.2178663,9.34806538 88.3567536,9.0552506 88.3567536,8.65745856 C88.3567536,8.35911455 88.2425571,8.11326064 88.014161,7.9198895 C87.7857649,7.72651837 87.4678668,7.62983425 87.0604573,7.62983425 Z M92.1111111,10.5966851 L89.9722222,7.09944751 L90.8703704,7.09944751 L92.3888889,9.63535912 L92.5462963,10.140884 L92.5555556,10.140884 L92.7222222,9.61878453 L94.1759259,7.09944751 L95,7.09944751 L92.8796296,10.5883978 L92.8796296,12.9005525 L92.1111111,12.9005525 L92.1111111,10.5966851 Z" id="the-Doodle-Library" fill="#666666" fill-rule="nonzero" opacity="0.595278533"></path>
            </g>
        </g>
    </g>
</svg>