<svg width="33" height="43" viewBox="0 0 33 43" fill="none" xmlns="http://www.w3.org/2000/svg">
<g filter="url(#filter0_d)">
<path fill-rule="evenodd" clip-rule="evenodd" d="M16.5 4C9.58929 4 4 9.4775 4 16.25C4 25.4375 16.5 39 16.5 39C16.5 39 29 25.4375 29 16.25C29 9.4775 23.4107 4 16.5 4Z" fill="white"/>
</g>
<path fill-rule="evenodd" clip-rule="evenodd" d="M6 16.5C6 10.695 10.695 6 16.5 6C22.305 6 27 10.695 27 16.5C27 24.375 16.5 36 16.5 36C16.5 36 6 24.375 6 16.5ZM12.75 16.5C12.75 18.57 14.43 20.25 16.5 20.25C18.57 20.25 20.25 18.57 20.25 16.5C20.25 14.43 18.57 12.75 16.5 12.75C14.43 12.75 12.75 14.43 12.75 16.5Z" fill="#1948FF"/>
<defs>
<filter id="filter0_d" x="0" y="0" width="33" height="43" filterUnits="userSpaceOnUse" color-interpolation-filters="sRGB">
<feFlood flood-opacity="0" result="BackgroundImageFix"/>
<feColorMatrix in="SourceAlpha" type="matrix" values="0 0 0 0 0 0 0 0 0 0 0 0 0 0 0 0 0 0 127 0"/>
<feOffset/>
<feGaussianBlur stdDeviation="2"/>
<feColorMatrix type="matrix" values="0 0 0 0 0 0 0 0 0 0 0 0 0 0 0 0 0 0 0.390051 0"/>
<feBlend mode="normal" in2="BackgroundImageFix" result="effect1_dropShadow"/>
<feBlend mode="normal" in="SourceGraphic" in2="effect1_dropShadow" result="shape"/>
</filter>
</defs>
</svg>
