<?xml version="1.0" encoding="utf-8"?>
<!-- Generator: Adobe Illustrator 19.0.0, SVG Export Plug-In . SVG Version: 6.00 Build 0)  -->
<svg version="1.1" id="Layer_1" xmlns="http://www.w3.org/2000/svg" xmlns:xlink="http://www.w3.org/1999/xlink" x="0px" y="0px"
	 viewBox="0 0 96 96" style="enable-background:new 0 0 96 96;" xml:space="preserve">
<style type="text/css">
	.st0{fill:#333333;}
</style>
<g id="XMLID_5_">
	<path id="XMLID_9_" class="st0" d="M72.8,21.8c-0.2,0-0.3,0-0.5,0.1l-15.6,6.1l-17.5-6.1l-16.4,5.5c-0.6,0.2-1.1,0.7-1.1,1.4v44.1
		c0,0.8,0.7,1.5,1.5,1.5c0.2,0,0.3,0,0.5-0.1l15.6-6.1l17.5,6.1l16.5-5.5c0.6-0.2,1-0.7,1-1.4V23.2C74.3,22.4,73.6,21.8,72.8,21.8z
		 M56.8,68.4l-17.5-6.1V27.6l17.5,6.1V68.4z"/>
</g>
</svg>
