<?xml version="1.0" encoding="utf-8"?>
<!-- Generator: Adobe Illustrator 19.0.0, SVG Export Plug-In . SVG Version: 6.00 Build 0)  -->
<svg version="1.1" id="Layer_1" xmlns="http://www.w3.org/2000/svg" xmlns:xlink="http://www.w3.org/1999/xlink" x="0px" y="0px"
	 viewBox="0 0 96 96" style="enable-background:new 0 0 96 96;" xml:space="preserve">
<style type="text/css">
	.st0{fill:#333333;}
</style>
<g id="XMLID_2_">
	<path id="XMLID_13_" class="st0" d="M60.5,18c-2.8,0-5,2-5,4.4v12c0,2.4,2.2,4.4,5,4.4c2.8,0,5-2,5-4.4v-12
		C65.5,20,63.3,18,60.5,18z M18,26.3v4.2h35v-4.2H18z M68,26.3v4.2h10v-4.2H68z M35.5,38c-2.8,0-5,2-5,4.4v12c0,2.4,2.2,4.4,5,4.4
		c2.8,0,5-2,5-4.4v-12C40.5,40,38.3,38,35.5,38z M18,46.3v4.2h10v-4.2H18z M43,46.3v4.2h35v-4.2H43z M60.5,57.2c-2.8,0-5,2-5,4.4v12
		c0,2.4,2.2,4.4,5,4.4c2.8,0,5-2,5-4.4v-12C65.5,59.1,63.3,57.2,60.5,57.2z M18,65.5v4.2h35v-4.2H18z M68,65.5v4.2h10v-4.2H68z"/>
</g>
</svg>
