<?xml version="1.0" encoding="UTF-8"?>
<svg width="800px" height="1000px" viewBox="0 0 800 1000" version="1.1" xmlns="http://www.w3.org/2000/svg" xmlns:xlink="http://www.w3.org/1999/xlink">
    <!-- Generator: Sketch 51.1 (57501) - http://www.bohemiancoding.com/sketch -->
    <title>shrug_DL</title>
    <desc>Created with Sketch.</desc>
    <defs></defs>
    <g id="shrug_DL" stroke="none" stroke-width="1" fill="none" fill-rule="evenodd">
        <g id="logo-footer" transform="translate(441.000000, 750.000000)">
            <g>
                <path d="M110.812545,8.25651402 C110.904572,8.56348079 110.810146,8.81874549 110.573746,9.09365441 C110.548096,9.12348237 110.524607,9.14951827 110.482164,9.19539003 C110.410296,9.27306357 110.388406,9.29969141 110.394575,9.28699974 C110.158488,9.77253772 109.949286,10.3963755 109.78094,11.1092981 C109.323962,13.0450464 110.241419,14.6677006 112.137009,15.2172501 C114.194676,15.8138908 116.608374,14.6870388 117.500673,12.7424366 C118.556971,10.4412591 118.361229,8.87677042 116.832238,7.67717368 C114.960938,6.20902274 112.357851,6.27012948 111.072216,7.83985899 L110.795491,8.1777337 C110.794947,8.20051389 110.804056,8.228204 110.812545,8.25651402 Z M110.106083,6.26944954 C110.423589,5.88663707 110.955421,5.49967933 111.419965,5.30848582 C112.37958,4.91358991 113.68037,4.90617957 115.133698,5.23840657 C117.932917,5.87841333 120.108577,8.22064492 119.995807,10.6570534 C119.760531,15.7499925 113.426094,19.0246323 109.732148,15.5763745 C107.943744,13.9068501 107.553768,11.8021869 108.499361,9.2850154 C108.62423,8.95356867 108.851111,8.49010331 109.049811,8.18524994 C109.270059,7.84733807 109.481086,7.64146186 109.750777,7.55562368 C109.778602,7.54676715 109.806094,7.5393618 109.833231,7.53336632 C109.647627,7.16965375 109.747904,6.70130236 110.106083,6.26944954 Z" id="Fill-4" fill="#000000" fill-rule="nonzero"></path>
                <path d="M116,2.36382675 C116.035222,2.23410526 116.077249,2.03952302 116.14169,1.8509661 C116.280178,1.44230796 116.378641,1.03435869 116.377039,0.600890425 C116.376639,0.410561355 116.256963,0.110004457 116.623996,0.0412449782 C116.938196,-0.017590452 117.272408,-0.0501980398 117.512961,0.20711836 C117.655051,0.358460099 117.796741,0.518308165 117.8896,0.694814455 C118.216208,1.3175485 117.776729,2.53572545 117.114308,2.89086461 C116.612389,3.15987721 116.012808,2.911776 116,2.36382675" id="Fill-103" fill="#000000" fill-rule="nonzero"></path>
                <path d="M113.597281,1.30015424 C113.547641,1.6054057 113.484683,1.90995301 113.451993,2.21696486 C113.409214,2.61727733 113.068594,2.79366831 112.724342,2.93802021 C112.426905,3.06335991 112.146418,3.01090032 112.073774,2.6669203 C111.908307,1.88389925 112.059649,1.1040469 112.154086,0.329475719 C112.197269,-0.0278832593 112.773982,-0.106396611 113.167067,0.152380579 C113.512933,0.380527 113.619074,0.676272361 113.597281,1.30015424" id="Fill-107" fill="#000000" fill-rule="nonzero"></path>
                <path d="M112.19066,11.6823452 C110.632914,12.6206952 108.591708,13.9682577 107.051494,14.9237702 C106.603919,15.2015633 106.260092,15.3386205 105.847581,15.6483439 C105.453117,15.9444969 105.00264,16.1407116 104.673147,15.8744932 C104.334372,15.6006913 103.968388,15.4738054 104.253536,15.0032335 C104.507231,14.584149 104.804932,14.5525935 105.343775,14.3418539 C106.408054,13.9255633 108.032176,12.8044553 108.976827,12.2352987 C109.267132,12.0600815 109.780582,11.6912496 110.031699,11.4841022 C110.690685,10.9400907 110.546085,10.7856194 109.803565,10.2635599 C108.494872,9.34277154 106.87805,8.31351987 105.559045,7.40151231 C105.221301,7.16842154 104.87376,6.94291422 104.554064,6.69585398 C103.681603,6.022525 103.837029,5.29651112 105.037953,5.02270928 C105.314335,4.95964705 105.519044,5.02949445 105.664454,5.21269422 C106.875175,6.74015718 109.059218,7.93310366 110.770108,9.0590438 C111.354328,9.44340412 111.803432,9.85804585 112.62433,10.0292717 C113.067264,10.1214703 112.94712,10.4970498 112.994043,10.9392837 C113.057467,11.2214672 112.602656,11.4340876 112.19066,11.6823452 Z" id="chevron" fill="#000000" fill-rule="nonzero" transform="translate(108.500000, 10.500000) rotate(-2.000000) translate(-108.500000, -10.500000) "></path>
                <path d="M4.80555555,7.71270718 L2.78703703,7.71270718 L2.78703703,12.9005525 L2.01851852,12.9005525 L2.01851852,7.71270718 L0,7.71270718 L0,7.09944751 L4.80555555,7.09944751 L4.80555555,7.71270718 Z M9.97657951,10.2403315 L6.8654684,10.2403315 L6.8654684,12.9005525 L6.09694989,12.9005525 L6.09694989,7.09944751 L6.8654684,7.09944751 L6.8654684,9.62707182 L9.97657951,9.62707182 L9.97657951,7.09944751 L10.745098,7.09944751 L10.745098,12.9005525 L9.97657951,12.9005525 L9.97657951,10.2403315 Z M12.6568627,7.09944751 L16.1846405,7.09944751 L16.1846405,7.71270718 L13.4253813,7.71270718 L13.4253813,9.61049724 L15.953159,9.61049724 L15.953159,10.2237569 L13.4253813,10.2237569 L13.4253813,12.2872928 L16.2309368,12.2872928 L16.2309368,12.9005525 L12.6568627,12.9005525 L12.6568627,7.09944751 Z M20.7674291,7.09944751 C20.8847137,7.08287284 21.0158852,7.07044203 21.1609477,7.0621547 C21.3060102,7.05386736 21.4572432,7.04834254 21.6146514,7.04558011 C21.7720596,7.04281768 21.926379,7.04005525 22.0776143,7.03729282 C22.2288497,7.03453039 22.3692805,7.03314917 22.4989106,7.03314917 C23.0174317,7.03314917 23.4665011,7.10497164 23.8461328,7.24861878 C24.2257645,7.39226593 24.539033,7.59254015 24.7859476,7.84944751 C25.0328623,8.10635488 25.2165027,8.41436285 25.3368736,8.77348066 C25.4572445,9.13259848 25.5174291,9.52762215 25.5174291,9.95856354 C25.5174291,10.3508307 25.4603309,10.7278988 25.3461328,11.089779 C25.2319348,11.4516593 25.0513808,11.7720981 24.8044662,12.051105 C24.5575516,12.3301119 24.236567,12.5538666 23.8415032,12.7223757 C23.4464394,12.8908848 22.9680495,12.9751381 22.406318,12.9751381 C22.3075521,12.9751381 22.179467,12.9737569 22.0220588,12.9709945 C21.8646506,12.968232 21.7026152,12.9627072 21.5359477,12.9544199 C21.3692802,12.9461326 21.2149607,12.9392266 21.0729847,12.9337017 C20.9310087,12.9281767 20.8291578,12.9198895 20.7674291,12.9088398 L20.7674291,7.09944751 Z M22.5174291,7.64640884 L22.2535402,7.64640884 C22.1578608,7.64640884 22.0637259,7.64917122 21.9711328,7.65469613 C21.8785398,7.66022104 21.7936641,7.66574581 21.7165032,7.67127072 C21.6393424,7.67679563 21.5791578,7.6823204 21.5359477,7.6878453 L21.5359477,12.3287293 C21.566812,12.3342542 21.6254534,12.3383978 21.7118736,12.3411602 C21.7982938,12.3439227 21.887799,12.3466851 21.9803921,12.3494475 C22.0729851,12.3522099 22.1624904,12.3549724 22.2489106,12.3577348 C22.3353309,12.3604972 22.3939723,12.3618785 22.4248365,12.3618785 C22.8569374,12.3618785 23.2195881,12.2955808 23.5127995,12.1629834 C23.8060109,12.0303861 24.0405762,11.852211 24.2165032,11.628453 C24.3924302,11.404695 24.5174286,11.1477915 24.5915032,10.8577348 C24.6655778,10.5676781 24.7026143,10.2679574 24.7026143,9.95856354 C24.7026143,9.68784397 24.6686642,9.41574724 24.6007625,9.14226519 C24.5328607,8.86878315 24.4155783,8.62154807 24.2489106,8.40055249 C24.0822429,8.17955691 23.8584801,7.99861948 23.5776143,7.85773481 C23.2967486,7.71685014 22.9433571,7.64640884 22.5174291,7.64640884 Z M26.892157,10 C26.892157,9.03314434 27.1205495,8.29143904 27.5773422,7.77486188 C28.0341344,7.25828471 28.6853622,7 29.5310459,7 C29.9878381,7 30.3828957,7.07182247 30.7162311,7.21546961 C31.0495659,7.35911676 31.3257979,7.56215336 31.5449348,7.82458564 C31.7640716,8.08701791 31.9261071,8.40193186 32.0310459,8.76933702 C32.1359847,9.13674217 32.1884533,9.54695907 32.1884533,10 C32.1884533,10.9668557 31.9585171,11.708561 31.4986385,12.2251381 C31.0387594,12.7417153 30.3829019,13 29.5310459,13 C29.080426,13 28.6899981,12.9281775 28.3597496,12.7845304 C28.0295006,12.6408832 27.7548124,12.4378466 27.5356755,12.1754144 C27.3165387,11.9129821 27.1545032,11.5980681 27.0495644,11.230663 C26.9446256,10.8632578 26.892157,10.4530409 26.892157,10 Z M27.7069718,10 C27.7069718,10.3204436 27.7424651,10.624308 27.8134533,10.9116022 C27.884441,11.1988965 27.9940078,11.4516564 28.142157,11.6698895 C28.2903057,11.8881227 28.4801184,12.0621541 28.7116014,12.191989 C28.943084,12.3218238 29.2162295,12.3867403 29.5310459,12.3867403 C30.1051225,12.3867403 30.5557352,12.1919909 30.8828977,11.8024862 C31.2100598,11.4129815 31.3736385,10.8121587 31.3736385,10 C31.3736385,9.68508131 31.3381447,9.38259816 31.267157,9.09254144 C31.1961688,8.80248476 31.0850587,8.54834365 30.9338237,8.3301105 C30.7825881,8.11187735 30.5912321,7.93784595 30.3597496,7.80801105 C30.1282666,7.67817615 29.8520351,7.61325967 29.5310459,7.61325967 C28.9631416,7.61325967 28.5171585,7.80800912 28.1930829,8.19751381 C27.8690068,8.58701851 27.7069718,9.18784125 27.7069718,10 Z M33.5631807,10 C33.5631807,9.03314434 33.7915737,8.29143904 34.2483658,7.77486188 C34.7051585,7.25828471 35.3563864,7 36.2020695,7 C36.6588622,7 37.0539198,7.07182247 37.3872547,7.21546961 C37.7205896,7.35911676 37.9968216,7.56215336 38.2159584,7.82458564 C38.4350953,8.08701791 38.5971308,8.40193186 38.7020695,8.76933702 C38.8070083,9.13674217 38.8594769,9.54695907 38.8594769,10 C38.8594769,10.9668557 38.6295412,11.708561 38.1696621,12.2251381 C37.7097835,12.7417153 37.053926,13 36.2020695,13 C35.7514502,13 35.3610217,12.9281775 35.0307732,12.7845304 C34.7005248,12.6408832 34.425836,12.4378466 34.2066992,12.1754144 C33.9875623,11.9129821 33.8255268,11.5980681 33.7205881,11.230663 C33.6156493,10.8632578 33.5631807,10.4530409 33.5631807,10 Z M34.3779955,10 C34.3779955,10.3204436 34.4134893,10.624308 34.484477,10.9116022 C34.5554651,11.1988965 34.665032,11.4516564 34.8131807,11.6698895 C34.9613298,11.8881227 35.1511426,12.0621541 35.3826251,12.191989 C35.6141076,12.3218238 35.8872532,12.3867403 36.2020695,12.3867403 C36.7761467,12.3867403 37.2267594,12.1919909 37.5539214,11.8024862 C37.8810834,11.4129815 38.0446621,10.8121587 38.0446621,10 C38.0446621,9.68508131 38.0091688,9.38259816 37.9381806,9.09254144 C37.867193,8.80248476 37.7560829,8.54834365 37.6048473,8.3301105 C37.4536122,8.11187735 37.2622558,7.93784595 37.0307732,7.80801105 C36.7992907,7.67817615 36.5230587,7.61325967 36.2020695,7.61325967 C35.6341657,7.61325967 35.1881822,7.80800912 34.8641066,8.19751381 C34.540031,8.58701851 34.3779955,9.18784125 34.3779955,10 Z M40.5027233,7.09944751 C40.6200078,7.08287284 40.7511791,7.07044203 40.8962419,7.0621547 C41.0413041,7.05386736 41.1925371,7.04834254 41.3499456,7.04558011 C41.5073535,7.04281768 41.6616729,7.04005525 41.8129085,7.03729282 C41.9641436,7.03453039 42.1045747,7.03314917 42.2342048,7.03314917 C42.7527259,7.03314917 43.2017954,7.10497164 43.581427,7.24861878 C43.9610587,7.39226593 44.2743267,7.59254015 44.5212419,7.84944751 C44.7681565,8.10635488 44.9517969,8.41436285 45.0721678,8.77348066 C45.1925387,9.13259848 45.2527233,9.52762215 45.2527233,9.95856354 C45.2527233,10.3508307 45.1956251,10.7278988 45.081427,11.089779 C44.967229,11.4516593 44.786675,11.7720981 44.5397604,12.051105 C44.2928452,12.3301119 43.9718612,12.5538666 43.5767974,12.7223757 C43.1817336,12.8908848 42.7033432,12.9751381 42.1416122,12.9751381 C42.0428463,12.9751381 41.9147609,12.9737569 41.757353,12.9709945 C41.5999445,12.968232 41.437909,12.9627072 41.2712419,12.9544199 C41.1045742,12.9461326 40.9502547,12.9392266 40.8082789,12.9337017 C40.6663026,12.9281767 40.5644517,12.9198895 40.5027233,12.9088398 L40.5027233,7.09944751 Z M42.2527233,7.64640884 L41.9888344,7.64640884 C41.8931549,7.64640884 41.7990201,7.64917122 41.706427,7.65469613 C41.6138339,7.66022104 41.5289584,7.66574581 41.4517974,7.67127072 C41.3746364,7.67679563 41.3144517,7.6823204 41.2712419,7.6878453 L41.2712419,12.3287293 C41.3021061,12.3342542 41.3607475,12.3383978 41.4471678,12.3411602 C41.533588,12.3439227 41.6230932,12.3466851 41.7156863,12.3494475 C41.8082794,12.3522099 41.8977846,12.3549724 41.9842048,12.3577348 C42.0706251,12.3604972 42.1292665,12.3618785 42.1601307,12.3618785 C42.5922316,12.3618785 42.9548823,12.2955808 43.2480937,12.1629834 C43.5413051,12.0303861 43.7758705,11.852211 43.9517974,11.628453 C44.1277244,11.404695 44.2527228,11.1477915 44.3267974,10.8577348 C44.400872,10.5676781 44.4379085,10.2679574 44.4379085,9.95856354 C44.4379085,9.68784397 44.4039584,9.41574724 44.3360567,9.14226519 C44.2681549,8.86878315 44.150872,8.62154807 43.9842048,8.40055249 C43.8175371,8.17955691 43.5937743,7.99861948 43.3129085,7.85773481 C43.0320428,7.71685014 42.6786513,7.64640884 42.2527233,7.64640884 Z M50.7293025,12.9005525 L46.8959692,12.9005525 L46.8959692,7.09944751 L47.6644877,7.09944751 L47.6644877,12.2872928 L50.7293025,12.2872928 L50.7293025,12.9005525 Z M52.0206971,7.09944751 L55.5484749,7.09944751 L55.5484749,7.71270718 L52.7892156,7.71270718 L52.7892156,9.61049724 L55.3169934,9.61049724 L55.3169934,10.2237569 L52.7892156,10.2237569 L52.7892156,12.2872928 L55.5947712,12.2872928 L55.5947712,12.9005525 L52.0206971,12.9005525 L52.0206971,7.09944751 Z M63.9645968,12.9005525 L60.1312634,12.9005525 L60.1312634,7.09944751 L60.8997819,7.09944751 L60.8997819,12.2872928 L63.9645968,12.2872928 L63.9645968,12.9005525 Z M65.4319172,7.09944751 L66.2004357,7.09944751 L66.2004357,12.9005525 L65.4319172,12.9005525 L65.4319172,7.09944751 Z M72.1955335,8.42541436 C72.1955335,8.5635366 72.1708426,8.70441915 72.1214594,8.8480663 C72.0720767,8.99171344 71.9980031,9.12569001 71.8992372,9.25 C71.8004712,9.37431004 71.6739296,9.48342495 71.5196075,9.57734807 C71.365286,9.67127118 71.1831888,9.74309369 70.9733113,9.79281768 L70.9733113,9.82596685 C71.1584975,9.8535913 71.3359651,9.90055216 71.5057187,9.96685083 C71.6754728,10.0331495 71.8251626,10.1243088 71.9547927,10.2403315 C72.0844234,10.3563542 72.1893606,10.4972367 72.2696075,10.6629834 C72.349855,10.8287301 72.3899779,11.0248607 72.3899779,11.2513812 C72.3899779,11.5497252 72.3205345,11.8080099 72.1816446,12.0262431 C72.0427552,12.2444762 71.8606585,12.4226512 71.6353483,12.5607735 C71.4100386,12.6988957 71.1523251,12.8011047 70.8622001,12.8674033 C70.5720757,12.933702 70.2757819,12.9668508 69.9733113,12.9668508 L69.6029409,12.9668508 C69.4609651,12.9668508 69.3128185,12.9627072 69.1584964,12.9544199 C69.0041749,12.9461326 68.8498555,12.935083 68.6955335,12.9212707 C68.541212,12.9074585 68.4054111,12.8867405 68.2881261,12.859116 L68.2881261,7.14917127 C68.5165227,7.11602192 68.7819517,7.08839788 69.0844224,7.06629834 C69.386893,7.0441988 69.7171369,7.03314917 70.0751631,7.03314917 C70.3159054,7.03314917 70.5612732,7.05110479 70.8112742,7.08701657 C71.0612758,7.12292836 71.288125,7.19198844 71.4918298,7.2941989 C71.6955345,7.39640935 71.8637428,7.53867311 71.9964594,7.72099448 C72.1291765,7.90331584 72.1955335,8.13812012 72.1955335,8.42541436 Z M70.0473853,12.3701657 C70.2449172,12.3701657 70.4362737,12.3494477 70.6214594,12.308011 C70.8066456,12.2665744 70.9702243,12.2002767 71.1122001,12.109116 C71.2541765,12.0179553 71.3668298,11.906078 71.4501631,11.7734807 C71.533497,11.6408833 71.5751631,11.4834263 71.5751631,11.301105 C71.5751631,11.0745845 71.5242377,10.8922659 71.4223853,10.7541436 C71.320533,10.6160214 71.1878185,10.5082877 71.0242372,10.4309392 C70.8606564,10.3535908 70.677016,10.3011051 70.4733113,10.2734807 C70.2696065,10.2458562 70.0659049,10.2320442 69.8622001,10.2320442 L69.0566446,10.2320442 L69.0566446,12.3121547 C69.099855,12.3232045 69.1615829,12.3314917 69.2418298,12.3370166 C69.3220772,12.3425415 69.4084964,12.3480663 69.501089,12.3535912 C69.5936821,12.3591161 69.6893601,12.3632597 69.7881261,12.3660221 C69.886892,12.3687845 69.9733113,12.3701657 70.0473853,12.3701657 Z M69.5381261,9.6519337 C69.6430649,9.6519337 69.769607,9.64917132 69.9177557,9.64364641 C70.0659049,9.6381215 70.1893601,9.6298343 70.2881261,9.61878453 C70.4362752,9.57458541 70.5751626,9.52071855 70.7047927,9.45718232 C70.8344234,9.39364609 70.9501626,9.31906119 71.052015,9.23342541 C71.1538673,9.14778964 71.2341137,9.04834309 71.2927557,8.93508287 C71.3513982,8.82182265 71.3807187,8.69889567 71.3807187,8.56629834 C71.3807187,8.38397698 71.3421389,8.23342601 71.2649779,8.11464088 C71.1878174,7.99585576 71.0844234,7.90055285 70.9547927,7.82872928 C70.8251626,7.75690571 70.677016,7.70580124 70.5103483,7.67541436 C70.3436811,7.64502749 70.1739296,7.62983425 70.001089,7.62983425 C69.7973843,7.62983425 69.610658,7.63397785 69.4409038,7.64226519 C69.2711502,7.65055253 69.1430649,7.66298333 69.0566446,7.67955801 L69.0566446,9.6519337 L69.5381261,9.6519337 Z M74.0332243,7.15745856 C74.2677932,7.11878435 74.5378524,7.08839788 74.8434095,7.06629834 C75.1489666,7.0441988 75.428285,7.03314917 75.6813725,7.03314917 C75.9653246,7.03314917 76.2353838,7.0607732 76.4915576,7.1160221 C76.747732,7.17127099 76.9730381,7.26243029 77.1674836,7.38950276 C77.361929,7.51657523 77.5177917,7.68231943 77.6350762,7.88674033 C77.7523606,8.09116123 77.8110021,8.33977753 77.8110021,8.63259669 C77.8110021,9.08563762 77.6721147,9.45303725 77.3943354,9.73480663 C77.1165561,10.016576 76.7647078,10.2044194 76.3387799,10.2983425 L76.7832243,10.6049724 L78.3943354,12.9005525 L77.4961873,12.9005525 L75.7091502,10.3977901 L74.8017428,10.2734807 L74.8017428,12.9005525 L74.0332243,12.9005525 L74.0332243,7.15745856 Z M75.699891,7.62983425 L75.449891,7.62983425 C75.3634707,7.62983425 75.2801384,7.63259664 75.199891,7.63812155 C75.1196436,7.64364645 75.0440273,7.64917122 74.9730391,7.65469613 C74.902051,7.66022104 74.8449527,7.66850824 74.8017428,7.67955801 L74.8017428,9.81767956 L75.5239651,9.81767956 C75.949893,9.81767956 76.3017413,9.72375783 76.5795206,9.5359116 C76.8572999,9.34806538 76.9961873,9.0552506 76.9961873,8.65745856 C76.9961873,8.35911455 76.8819908,8.11326064 76.6535947,7.9198895 C76.4251986,7.72651837 76.1073004,7.62983425 75.699891,7.62983425 Z M82.722767,11.2928177 L80.3338781,11.2928177 L79.68573,12.9005525 L78.9264707,12.9005525 L81.3801744,7.00828729 L81.7320263,7.00828729 L84.1949892,12.9005525 L83.3894337,12.9005525 L82.722767,11.2928177 Z M80.5838781,10.6961326 L82.4912855,10.6961326 L81.7690633,8.93093923 L81.5375818,8.05248619 L81.5283226,8.05248619 L81.2968411,8.94751381 L80.5838781,10.6961326 Z M85.3937907,7.15745856 C85.6283596,7.11878435 85.8984187,7.08839788 86.2039758,7.06629834 C86.5095329,7.0441988 86.7888514,7.03314917 87.0419388,7.03314917 C87.325891,7.03314917 87.5959501,7.0607732 87.852124,7.1160221 C88.1082984,7.17127099 88.3336044,7.26243029 88.5280499,7.38950276 C88.7224954,7.51657523 88.878358,7.68231943 88.9956425,7.88674033 C89.112927,8.09116123 89.1715684,8.33977753 89.1715684,8.63259669 C89.1715684,9.08563762 89.0326811,9.45303725 88.7549018,9.73480663 C88.477123,10.016576 88.1252742,10.2044194 87.6993462,10.2983425 L88.1437906,10.6049724 L89.7549018,12.9005525 L88.8567536,12.9005525 L87.0697166,10.3977901 L86.1623092,10.2734807 L86.1623092,12.9005525 L85.3937907,12.9005525 L85.3937907,7.15745856 Z M87.0604573,7.62983425 L86.8104573,7.62983425 C86.7240371,7.62983425 86.6407047,7.63259664 86.5604573,7.63812155 C86.4802099,7.64364645 86.4045936,7.64917122 86.3336055,7.65469613 C86.2626178,7.66022104 86.2055196,7.66850824 86.1623092,7.67955801 L86.1623092,9.81767956 L86.8845314,9.81767956 C87.3104594,9.81767956 87.6623081,9.72375783 87.9400869,9.5359116 C88.2178663,9.34806538 88.3567536,9.0552506 88.3567536,8.65745856 C88.3567536,8.35911455 88.2425571,8.11326064 88.014161,7.9198895 C87.7857649,7.72651837 87.4678668,7.62983425 87.0604573,7.62983425 Z M92.1111111,10.5966851 L89.9722222,7.09944751 L90.8703704,7.09944751 L92.3888889,9.63535912 L92.5462963,10.140884 L92.5555556,10.140884 L92.7222222,9.61878453 L94.1759259,7.09944751 L95,7.09944751 L92.8796296,10.5883978 L92.8796296,12.9005525 L92.1111111,12.9005525 L92.1111111,10.5966851 Z" id="the-Doodle-Library" fill="#666666" fill-rule="nonzero" opacity="0.595278533"></path>
            </g>
        </g>
        <g id="shrug" transform="translate(189.000000, 243.000000)" fill="#1948ff">
            <path d="M233.530893,18.3045484 C235.932305,18.7163956 238.253256,19.3187221 240.54842,20.1588904 C243.306742,21.4500314 245.886609,23.0191692 248.359196,24.8086452 C251.370245,27.2632545 254.116188,29.9752682 256.575366,32.9776343 C258.819984,36.0592809 260.762363,39.3025775 262.726404,42.5726442 C263.350482,43.6187361 263.874501,44.7327827 264.442877,45.8107927 C265.216527,47.2779984 265.94479,48.7472632 266.626635,50.2484462 C268.299783,54.5429828 269.508741,58.960044 270.258666,63.5037481 C270.649618,67.4101187 270.64446,71.295897 270.248351,75.1991787 C268.794919,84.0230048 265.600258,92.4535168 262.302443,100.74709 C260.718007,104.135562 258.905601,107.342822 256.729064,110.383284 C255.067263,112.382802 253.279614,114.242292 251.307321,115.933955 C249.6187,117.092275 247.849619,118.084827 245.996983,118.954854 C239.356998,121.455796 232.319872,122.876669 225.344638,124.096766 C224.349208,124.212083 223.352746,124.32843 222.355252,124.443747 C219.224546,124.806173 216.044326,124.805143 212.903305,124.529206 C209.126858,123.860984 205.469038,122.751055 201.892709,121.352834 C200.126723,120.565177 198.385493,119.726038 196.679336,118.808648 C194.449159,117.607084 192.327293,116.191359 190.282793,114.690176 C185.994705,111.25846 181.804613,107.515798 178.244789,103.343786 C176.980128,101.522392 175.901143,99.619658 174.955227,97.608814 C173.463628,93.7765759 172.226819,89.8424056 170.968347,85.9298573 C169.468497,81.2677471 167.899533,76.6529993 167.020666,71.8415945 C166.673039,67.7715146 166.866967,63.7477676 167.277518,59.6941616 C167.682911,57.2858851 168.154322,54.9177638 168.929004,52.5980345 C169.429298,51.5745942 169.957444,50.569687 170.53304,49.5750761 C170.972473,48.8110995 171.475862,48.0790412 171.962746,47.3428643 C173.494574,45.0426977 174.469374,42.3955499 175.17907,39.7411948 C175.958909,36.8273759 175.699994,33.7210184 174.414703,31.0048862 C174.605537,30.8483843 174.797402,30.692912 174.988236,30.5384693 C178.044671,28.2599247 181.260995,26.2264292 184.733139,24.6408175 C190.823316,22.3087328 197.364274,21.6518365 203.767007,20.6335443 C205.922913,20.2875927 208.066441,19.8530939 210.214095,19.4628687 C212.104897,19.1220651 213.994668,18.8358313 215.889596,18.567101 C221.770372,18.0615586 227.647022,17.7403178 233.530893,18.3045484 M230.595147,0.0411847192 C228.967386,0.11737645 227.335499,0.19356818 225.707738,0.269759911 C224.442046,0.330507371 223.16088,0.547756765 221.900346,0.684695956 C220.260206,0.86590872 218.628319,1.07903964 217.004685,1.35600688 C214.437196,1.79874261 211.927473,2.31767007 209.388868,2.90455232 C205.036825,3.90637061 200.781747,5.45800491 196.506038,6.74502738 C189.507079,8.85265538 182.451385,11.0004385 176.479834,15.3845518 C172.962303,17.9668337 169.657267,20.992881 166.959805,24.4637232 C165.703397,24.0487871 164.374781,23.8222712 163.018314,23.8068269 C161.490611,23.790353 159.15006,23.9066999 158.009184,24.3411986 C156.457756,24.9291105 154.798018,25.3749351 153.443614,26.3520426 C152.404859,27.1005748 150.748215,28.162111 149.813645,29.3327866 C149.439198,29.8074405 147.782554,31.7215003 147.141972,32.8643763 C145.89691,35.0759957 145.013917,37.4688279 144.030865,39.8060607 C142.645514,43.1080456 141.838854,46.5428511 141.347844,50.0816481 C140.815573,53.9190343 140.400896,57.7111173 140.122382,61.5690959 C139.881003,64.9266801 140.009944,68.3295676 140.392644,71.6675891 C140.864055,75.7139877 141.476786,79.7356755 142.725974,83.6214538 C144.462046,89.0228297 146.480758,94.33154 148.419011,99.6649611 C150.168493,104.486662 152.037633,109.333074 154.576238,113.797498 C155.893507,116.11002 157.658462,118.173374 159.290349,120.26041 C160.08463,121.274583 160.962466,122.243454 161.873311,123.156725 C162.889372,124.173988 163.887897,125.199487 164.940062,126.169387 C167.333221,128.37277 169.787241,130.50099 172.346477,132.515952 C175.835125,135.267092 179.365035,137.868936 183.253919,140.033193 C184.765116,140.869243 186.348521,141.580709 187.9278,142.272612 C190.555118,143.430933 193.210286,144.537772 195.905685,145.518998 C199.355135,146.773073 202.921149,147.658544 206.548023,148.205271 C211.177548,148.90953 215.686384,149.226652 220.357171,148.820983 C224.365712,148.475031 228.468123,147.887119 232.420962,147.082988 C235.35774,146.487868 238.247067,145.800084 241.157025,145.072144 C245.351243,144.022963 249.561965,142.727704 253.542655,141.050456 C255.89249,140.060993 258.177338,139.079767 260.405452,137.848344 C262.645944,136.609713 264.624427,134.94894 266.643139,133.388039 C270.28136,130.568945 273.097448,126.853054 275.857834,123.217472 C279.891132,117.88817 282.490598,111.754735 284.879631,105.568791 C287.390385,99.0729308 289.791797,92.4329245 291.254512,85.6240608 C292.148852,81.4695522 292.700723,77.2100226 292.939008,72.9710854 C293.209269,68.0804 292.54393,63.1289672 291.681567,58.3268289 C290.992503,54.46988 289.823774,50.7097151 288.409541,47.0576601 C287.035538,43.5095966 285.496489,39.9471184 283.578867,36.6482223 C278.590368,28.0776823 273.065471,19.5874524 265.373321,13.1770509 C258.490925,7.43281219 250.621351,2.67082904 241.708896,0.946218923 C238.688564,0.362425529 235.503186,0 232.386922,0 C231.786569,0 231.188279,0.0133850337 230.595147,0.0411847192" id="Fill-247"></path>
            <path d="M51.8494417,90.5223276 C50.039599,91.1296853 48.4640071,92.2204998 47.130814,93.8008445 C46.5737043,94.6645072 46.0165946,95.523311 45.4605034,96.3821148 C44.4929453,98.3706039 44.0081479,100.519435 44,102.821321 C44.1232363,104.08341 44.2668423,105.340641 44.4216516,106.597871 C44.68442,107.742133 45.2812505,109.392932 45.937153,110.522617 C46.2355683,111.035227 46.5146324,111.566057 46.8130476,112.078667 C47.5412623,113.307959 48.2684586,114.537251 49.0048211,115.755611 C50.3094967,117.920234 51.634542,120.069065 52.9280143,122.242191 C54.3325011,124.609671 55.819485,126.935851 57.1486042,129.368926 C58.7761386,132.335261 60.4026545,135.305241 62.026115,138.271576 C64.7312035,143.210609 66.9952893,148.510412 69.4223322,153.645014 C70.3888717,155.694239 71.1771769,157.8868 72.0357573,160.002834 C73.1866421,162.816115 74.3324345,165.634255 75.4792453,168.447536 C76.1555175,170.375289 76.8328081,172.301828 77.5100987,174.228366 C78.3503464,176.625 79.0541176,179.082369 79.7935356,181.526377 C81.3619981,186.708353 82.8296308,191.931629 84.3930008,197.113605 C85.9125762,202.138882 87.4128003,207.159301 88.8651558,212.212517 C89.5852227,214.707543 90.2095522,217.241439 90.9051755,219.752256 C91.3471967,221.350821 91.7881995,222.954246 92.2302207,224.558885 C92.3768822,225.079998 92.5887265,225.587749 92.7669608,226.090641 C92.8789939,226.408896 92.9900084,226.727152 93.101023,227.040548 C93.4636026,228.069412 93.8292377,229.099491 94.1958912,230.134429 C94.8436459,231.234961 95.5443616,232.288119 96.2878535,233.298762 C98.0508461,235.737911 101.150087,237 103.77166,237 C106.568412,237 109.281648,235.656525 111.259541,233.298762 C113.255766,230.920349 114.308876,227.622397 114.331283,224.330518 L114.358782,224.373033 C114.465722,222.860713 114.265081,221.135817 113.981943,219.472871 C115.721511,215.534764 117.731995,211.771576 119.777107,208.041185 C122.641078,202.816694 125.51829,197.597062 128.267174,192.282682 C131.159663,186.703494 133.983914,181.066 136.920198,175.519609 C140.082585,169.555356 143.300988,163.676134 146.615129,157.829708 C148.958656,153.697247 151.500788,149.702048 153.971625,145.677696 C155.101122,143.837402 155.213155,140.905079 154.727339,138.792689 C154.20995,136.557612 152.957217,134.622571 151.281814,133.45037 C149.551413,132.245373 147.443155,131.917399 145.509057,132.55391 C143.480241,133.217145 142.231582,134.702742 141.033847,136.657219 C137.10658,143.049051 133.280143,149.502834 129.54435,156.055009 C126.560198,161.294077 123.782797,166.712922 120.981971,172.088038 C117.974393,177.867654 114.939317,183.627834 111.848223,189.3455 C110.690209,191.484614 109.4884,193.589715 108.281499,195.689958 C107.1133,191.75671 105.865659,187.858688 104.555891,183.980102 C102.204216,177.023427 99.8922617,170.048531 97.3501304,163.186603 C96.2878535,160.32109 95.293815,157.398484 94.1276529,154.583989 C92.5327099,150.750347 90.9408224,146.911846 89.3458794,143.078205 C87.6755687,139.048994 85.7343418,135.191057 83.8756119,131.282103 C83.13212,129.711476 82.4436261,128.07404 81.6166186,126.560504 C80.2518525,124.054547 78.8830126,121.549803 77.5141726,119.043845 C73.9667994,112.539044 70.0761977,106.345211 66.0908772,100.226689 C65.5704328,97.998901 64.620189,95.9059463 63.2401457,94.3183133 C63.1281127,94.1859093 63.0130242,94.0571495 62.9020096,93.9296043 C61.5606687,92.3395419 59.976929,91.2390097 58.1589384,90.631652 C57.2270273,90.1712749 56.2553953,90 55.2776525,90 C54.1257492,90 52.9656981,90.2380842 51.8494417,90.5223276" id="Fill-249"></path>
            <path d="M375.871559,103.686461 C373.969348,105.548185 373.155154,108.073337 372.160431,110.466289 C371.569171,111.8926 371.05303,113.341955 370.5381,114.791309 C369.505818,117.681529 368.540173,120.594793 367.546662,123.499567 C365.651721,129.049566 363.594426,134.514665 361.493514,139.985828 C356.905189,150.461207 352.156932,160.860177 347.55528,171.330705 C342.608321,182.583521 337.937607,193.940642 333.375937,205.349916 C331.340451,203.5173 329.343736,201.643448 327.355502,199.757467 C324.813567,197.351174 322.31525,194.910922 319.924766,192.356661 C317.392524,189.647156 315.031117,186.809088 312.640633,183.975872 C312.82843,184.219655 313.015017,184.462225 313.201603,184.706008 C311.370877,182.348228 309.512284,180.001365 307.799083,177.561112 C305.315305,174.022018 302.82547,170.482924 300.34048,166.938978 L292.601998,155.895985 C290.74704,153.251974 288.683687,150.731673 286.667586,148.206521 C284.882901,145.974878 282.970998,143.852392 280.959743,141.824508 C278.536545,139.380616 275.867393,137.290877 273.150988,135.192648 C270.533934,133.173253 267.371661,132.051368 264.32449,130.871265 C261.437249,129.753018 257.561344,130.587459 254.995178,132.093818 C252.288466,133.676586 250.262672,136.306043 249.430304,139.333315 C248.568857,142.464892 249.013514,145.875424 250.650384,148.671042 C251.280415,149.490928 251.914082,150.309601 252.544113,151.124636 C254.041649,152.615228 255.805737,153.647363 257.840012,154.228317 C258.50518,154.571554 259.143693,154.94875 259.768878,155.361119 C262.779701,157.965106 265.458546,160.918394 267.95444,164.024501 C272.208364,169.733383 276.023689,175.760031 279.951693,181.696928 C281.982333,184.763011 284.008126,187.82303 286.037554,190.8879 C287.988229,193.839976 290.131547,196.682894 292.176726,199.568263 C294.424242,202.747141 296.866826,205.883569 299.317891,208.90599 C301.405476,211.488146 303.483368,214.080005 305.636379,216.605157 C307.785756,219.125458 309.891515,221.683357 312.394678,223.857996 C314.264175,225.478363 316.242716,226.927717 318.363014,228.179378 C319.617019,228.922855 320.980068,229.477127 322.234073,230.235158 C323.701319,231.115686 325.074061,232.139331 326.560693,232.987113 C329.89259,234.887647 334.009603,235.621421 337.696499,234.403721 C340.105158,233.608091 341.350681,232.740904 343.262584,231.112048 C344.677732,229.907688 345.708803,228.373434 346.802877,226.880416 C347.890892,225.393463 348.634814,223.701538 349.415084,222.038722 C350.650915,219.404413 351.649272,216.660948 352.671862,213.936889 C353.263122,212.368674 353.831362,210.787119 354.408083,209.209202 C356.819165,202.651326 359.399871,196.156518 361.961191,189.650794 C364.063315,184.702369 366.139996,179.741815 368.313604,174.822499 C371.114821,168.474445 373.945116,162.139733 376.65304,155.74923 C379.44941,149.130712 382.294245,142.521896 384.541761,135.689916 C386.600267,129.444955 388.541249,123.158757 390.576735,116.904093 C390.850556,116.066014 391.135282,115.227935 391.41395,114.388643 C392.407461,111.408673 392.13364,108.353505 390.623987,105.590635 C388.955616,102.534254 385.794554,101 382.601991,101 C380.161831,101 377.704708,101.89387 375.871559,103.686461" id="Fill-251"></path>
            <path d="M366.616197,97.6108262 C364.312995,99.9075247 363,103.065788 363,106.322065 L363.440496,109.597704 C364.027825,111.682642 365.084774,113.492895 366.616197,115.033305 C368.379396,117.118242 370.090415,119.231011 372.171549,121.013433 C373.678702,122.30336 375.252597,123.456549 376.997594,124.383457 C379.940304,125.943227 382.71434,126.624492 385.999254,126.912487 C391.654112,127.418293 397.067486,125.650392 402.276994,123.698562 C404.428509,122.89024 406.576384,122.086758 408.723046,121.263916 C413.255427,119.528687 418.231945,117.619208 420.474472,112.930216 C421.825085,110.10351 422.469448,107.357879 421.611511,104.246808 C420.900407,101.675426 418.952757,98.6551101 416.42142,97.5164413 L415.923889,97.2889496 C414.066038,96.2168343 412.064995,95.6771465 409.918333,95.6686761 C409.567634,95.6444748 409.215723,95.6251138 408.869878,95.6021226 C407.988886,95.5452497 405.36775,95.9711917 404.063249,96.3390506 C402.409264,96.812185 400.802605,97.3797043 399.195945,97.9932059 C395.517861,99.3980884 391.916226,101.163569 388.081601,102.089267 C386.660606,100.681965 385.388869,99.1427652 384.088009,97.6108262 C382.06391,95.2233731 378.385825,94 375.352103,94 C372.091458,94 368.924253,95.3092875 366.616197,97.6108262" id="Fill-253"></path>
            <path d="M5.20576945,76.2386188 C-0.162491283,78.9724186 -1.53918649,86.5821291 1.8266085,91.3721098 C2.43415272,92.4707856 3.23125073,93.381643 4.21911764,94.1157302 C5.09641149,94.8584105 5.89350951,95.4476444 6.78659952,96.0761606 C7.29450648,96.4358388 7.80727381,96.7807861 8.32004113,97.1318713 C10.4598119,98.5889977 12.6676276,99.9417806 14.926477,101.207406 C20.3372658,104.238278 26.0287401,107.018725 32.0373524,108.57774 C36.1139741,109.632223 40.4238928,110.135527 44.6293139,109.968578 C49.1482279,109.79549 53.6477004,108.855171 57.9952868,107.637421 C63.0075266,106.23308 66.0501081,100.847728 64.6649073,95.7741782 C63.2882121,90.7104492 57.9381776,87.6366123 52.9222926,89.0372704 C50.9514191,89.5872221 48.9659646,90.0782504 46.9549932,90.4416113 C44.7070796,90.6478431 42.4919734,90.7030838 40.2428447,90.5201758 C37.2367159,89.959176 34.3715373,89.0863733 31.5318756,87.952098 C27.3519714,86.0616392 23.306942,83.8065919 19.5122208,81.2188729 C19.0274005,80.7892232 18.5571613,80.3472978 18.1027182,79.8857312 C17.2715977,78.3635436 15.8499442,77.0181262 14.5327883,76.2386188 C13.0941236,75.3866848 11.5728329,75 10.0466818,75 C8.40631241,75 6.75986757,75.4456081 5.20576945,76.2386188" id="Fill-255"></path>
            <path d="M150.362303,289.356231 C150.36717,289.380562 150.37082,289.404893 150.372037,289.43044 C150.368387,289.404893 150.364737,289.381779 150.362303,289.356231 M148.118666,143.305267 C148.105282,150.63245 147.848553,157.965716 147.220724,165.269785 C146.807038,170.073877 146.398219,174.877968 145.909096,179.677194 C144.901649,189.571264 144.806745,199.535892 145.258149,209.46889 C145.789857,221.281433 147.400799,233.067213 148.736761,244.809197 C149.402309,250.630311 150.110442,256.485488 150.419489,262.335799 C150.647017,266.617998 150.823442,270.84667 150.823442,275.133735 C150.823442,278.554628 150.556979,281.960923 150.184662,285.362351 C150.076373,286.160397 149.974169,286.95966 149.873181,287.760139 C149.825728,288.125099 149.778276,288.496142 149.820862,288.862319 C149.824512,290.35014 150.157894,291.75402 150.825875,293.061793 C151.278496,294.659102 152.410049,296.35495 153.627989,297.387788 C154.311787,297.919413 155.00167,298.452255 155.690335,298.98388 C156.678314,299.464411 157.690628,299.873166 158.72241,300.224744 C159.606968,300.528878 160.594947,300.589704 161.507489,300.736905 C163.038127,300.985078 164.568765,301.179723 166.10792,301.307459 C169.573149,301.601861 173.009175,301.663904 176.489004,301.725947 C179.578265,301.778258 182.680909,301.649305 185.775037,301.616459 C189.369238,301.583613 192.962222,301.5459 196.560073,301.506971 C209.772472,301.369503 222.956886,301.008192 236.141301,300.090926 C243.64605,299.571466 251.298023,298.707727 258.812507,299.37682 C262.216899,299.951024 265.579922,300.717441 268.950246,301.478991 C270.286208,301.778258 271.616087,302.12497 272.971517,302.314749 C274.710214,302.558056 276.582752,303.014256 278.289815,302.999658 C278.702284,302.999658 279.120837,302.999658 279.534523,302.989926 C282.343937,302.952213 284.234725,302.134702 286.70224,300.937633 C289.55789,299.549568 291.730958,296.308722 292.547379,293.337947 C293.150874,291.081276 293.150874,288.828256 292.547379,286.576452 C291.943884,284.418321 290.851267,282.550941 289.278043,280.964581 C289.121086,280.840495 288.968995,280.716408 288.812038,280.598405 C287.176762,278.973116 285.247039,277.846605 283.022868,277.22374 C282.62865,277.071673 282.234432,276.924473 281.840213,276.772406 C281.169799,276.520583 280.484783,276.31134 279.810719,276.088714 C278.298332,275.585069 276.749443,275.194562 275.200554,274.810137 C269.544007,273.403824 263.764571,272.391668 257.947417,271.982912 C252.633986,271.61187 247.239034,272.396534 241.958455,272.923293 C238.584481,273.261489 235.219024,273.698225 231.849917,274.092382 C219.234929,275.575337 206.578573,276.554646 193.922217,277.622763 C188.023542,278.122758 182.129734,278.739541 176.227409,279.224938 C174.374339,279.375788 172.52857,279.530288 170.67915,279.656808 C170.760671,276.611823 170.516109,273.519395 170.405387,270.490225 C170.138925,263.632624 169.259234,256.794488 168.518249,249.979466 C167.800383,243.370038 166.949893,236.778857 166.155373,230.177945 C165.082223,221.31063 164.254851,212.395871 163.998122,203.461646 C163.860632,198.657555 163.903218,193.848596 164.055308,189.048154 C164.212265,183.964259 164.791426,178.911995 165.205112,173.846348 C165.39127,171.579945 165.566479,169.313543 165.74777,167.045924 C165.927845,164.779521 166.212559,162.493654 166.289212,160.21752 C166.479021,154.576453 166.721149,148.946334 166.726016,143.305267 C166.730883,138.234754 162.491819,134 157.425383,134 C152.344346,134 148.128399,138.234754 148.118666,143.305267" id="Fill-257"></path>
            <path d="M261.906833,193.505909 C261.879954,193.303282 261.851853,193.098229 261.824974,192.895602 C261.851853,193.099442 261.879954,193.303282 261.906833,193.505909 M277.708191,190.549016 C277.754619,190.877829 277.799825,191.206643 277.843809,191.535456 C277.798603,191.206643 277.753397,190.877829 277.708191,190.549016 M262.889149,153.266933 C260.869537,153.817786 259.118718,155.158519 258.063095,156.950612 C256.923169,158.888305 256.785107,160.974024 257.248164,163.130117 C257.829734,165.807943 258.46995,168.505182 258.875583,171.215768 C259.284881,173.949407 259.699066,176.68426 260.110808,179.421539 C260.769351,184.626738 261.409567,189.838003 262.115759,195.037135 C262.047339,194.525108 261.976475,194.015508 261.906833,193.505909 C263.633217,206.279878 265.297289,219.065981 267.308349,231.802338 C268.295552,238.082549 269.27909,244.357908 270.35304,250.623559 C271.253496,255.851811 272.172279,261.06793 272.979879,266.308315 C273.262112,269.498167 273.527239,272.66618 273.522352,275.870592 C273.517465,277.680885 273.507691,279.487538 273.474703,281.297831 C273.460041,282.44443 273.427053,283.577683 273.484477,284.724283 C273.670188,288.316962 275.182759,292.212974 278.619643,293.895867 C279.889079,294.62508 281.263588,294.995147 282.738284,295 C284.208092,294.995147 285.582601,294.62508 286.852037,293.895867 C288.07871,293.175147 289.05736,292.203267 289.781879,290.989934 C290.517395,289.724428 290.890039,288.359429 290.894926,286.899789 C291.023214,285.629429 290.898592,284.316603 290.942576,283.03775 C290.96579,282.28791 291,281.544137 291,280.795511 C291,279.050738 290.951129,277.312032 290.890039,275.567259 C290.784966,272.30218 290.326796,269.074714 289.916276,265.837542 C289.02315,258.874224 287.377405,251.993412 286.088421,245.091974 C283.764584,232.674724 281.792621,220.156768 280.065016,207.644878 C279.360045,202.505199 278.650188,197.370374 277.94033,192.235549 C277.245134,186.810737 276.648902,181.365299 275.827862,175.961114 C275.369693,172.960541 274.911523,169.955115 274.453353,166.950903 C274.042833,164.239104 273.39773,161.547931 272.821047,158.865252 C272.045213,155.289559 268.449497,153 264.919758,153 C264.233114,153 263.550136,153.086147 262.889149,153.266933" id="Fill-259"></path>
            <path d="M180.873509,291.561757 C180.978319,295.094527 181.04535,298.627297 181.178191,302.160067 C181.306158,305.640707 181.325657,309.145593 181.568185,312.621383 C181.982553,318.611574 182.339641,324.602978 182.891725,330.579834 C183.50109,337.166498 184.249391,343.759225 184.69179,350.365287 C185.238999,358.571643 185.791084,366.779211 186.338294,374.98678 C186.590571,378.73171 186.610071,382.492401 186.705131,386.248243 C186.819692,390.832115 187.047595,395.415987 186.914753,399.99501 C186.772162,405.134136 186.585696,410.244166 186.257858,415.372381 C186.193265,416.353167 186.12136,417.331529 186.043361,418.312315 C184.708852,418.152286 183.374343,418.024989 182.044708,418.038325 C175.47941,418.109854 170,423.436893 170,430.01992 C170,433.182926 171.280885,436.25258 173.528223,438.49178 C175.032136,439.974476 176.802951,441.002544 178.840667,441.569921 C180.973445,442.14336 183.111097,442.14336 185.243874,441.569921 C187.766645,441.206218 190.271135,440.704307 192.784157,440.277562 C193.92245,440.083587 195.060744,439.917496 196.192944,439.73322 C200.120911,439.084616 204.928801,437.758312 206.643554,433.741816 C207.542976,432.198502 207.995125,430.536379 208,428.750596 C207.880564,427.878921 207.761129,427.003609 207.647787,426.127084 C207.446697,425.41665 207.177357,424.745012 206.840988,424.115805 C206.853175,423.944865 206.865362,423.773924 206.876331,423.602984 C206.986017,421.831749 207.056703,420.065364 207.123733,418.29413 C207.238294,415.26327 207.371135,412.222711 207.36626,409.191852 L207.36626,398.024952 C207.361386,395.302027 207.161514,392.569404 207.051828,389.851329 C206.795895,383.647765 206.561899,377.458749 206.085375,371.263672 C205.524759,363.956875 205.143297,356.611283 204.396216,349.319034 C203.457793,340.179173 202.429185,331.042949 201.682104,321.880054 C201.29211,317.082809 200.910648,312.2989 200.68762,307.493168 C200.440218,302.184314 200.263502,296.87546 200.09288,291.561757 C199.930789,286.352315 195.845606,282 190.485632,282 C185.36331,282 180.716292,286.352315 180.873509,291.561757" id="Fill-263"></path>
            <path d="M260.638099,419.387197 C260.655058,419.427259 260.672017,419.468535 260.688977,419.509811 C260.688977,419.509811 260.687765,419.509811 260.686554,419.508597 C260.669595,419.467321 260.653847,419.427259 260.638099,419.387197 M243.001718,295.920424 C243.286391,310.033097 243.356651,324.145771 243.560161,338.258445 C243.753981,351.574738 244.445675,364.884962 244.753364,378.201256 C245.033191,390.51115 245.588,402.959438 244.128295,415.213488 C243.870273,416.994416 243.619519,418.776559 243.418431,420.568413 C242.737639,426.586178 245.818161,432.613656 250.805384,435.89508 C254.947068,438.622923 259.722301,439.799283 264.31825,441.456384 C264.725272,441.656693 265.131082,441.860644 265.540526,442.064595 C268.062605,443.316222 270.348466,444.070112 273.21094,443.994844 C276.892303,443.894083 280.938289,442.281899 283.275028,439.30883 L285.262891,436.73395 C286.412484,434.741786 286.990309,432.599088 287,430.29857 C287,426.932167 285.65053,423.664096 283.275028,421.283455 C280.900737,418.90767 277.63972,417.551639 274.280583,417.551639 C271.949901,417.551639 269.798502,418.1902 267.880899,419.32407 C267.297017,419.478247 266.713135,419.626354 266.120774,419.755037 C264.652589,419.842445 263.195308,419.853371 261.728335,419.756251 C261.656864,419.740469 261.584181,419.724688 261.51271,419.708906 C261.578125,418.803267 261.695628,417.900055 261.816765,416.98349 C262.038446,415.317891 262.227421,413.653506 262.393379,411.984265 C262.725295,408.740475 262.819782,405.483331 262.946976,402.224972 C263.192885,396.169573 262.999065,390.024338 262.852489,383.967725 C262.512093,369.807706 262.000894,355.657398 261.536938,341.507091 C261.04512,326.317605 261.120226,311.113551 260.804057,295.920424 C260.704725,291.059594 256.833176,287 251.902888,287 C247.124021,287 242.902386,291.059594 243.001718,295.920424" id="Fill-412"></path>
        </g>
    </g>
</svg>
