<?xml version="1.0" encoding="UTF-8"?>
<svg width="400px" height="49px" viewBox="0 0 400 49" version="1.1" xmlns="http://www.w3.org/2000/svg" xmlns:xlink="http://www.w3.org/1999/xlink">
    <!-- Generator: Sketch 57.1 (83088) - https://sketch.com -->
    <title>instructorlist</title>
    <desc>Created with Sketch.</desc>
    <g id="Symbols" stroke="none" stroke-width="1" fill="none" fill-rule="evenodd">
        <path d="M5.56953531,10.9701493 C2.41570206,10.9701493 0,8.57666214 0,5.45183175 C0,2.45997286 2.41570206,0 5.56953531,0 C8.7904714,0 11.2061735,2.45997286 11.2061735,5.45183175 C11.2061735,8.57666214 8.7904714,10.9701493 5.56953531,10.9701493 Z M10.4009394,48.2686567 L0.738131186,48.2686567 L0.738131186,15.1587517 L10.4009394,15.1587517 L10.4009394,48.2686567 Z M35.2289884,22.9375848 C32.7461835,22.9375848 30.2633786,24.4667571 28.9884248,27.3256445 L28.9884248,48.2686567 L19.3256165,48.2686567 L19.3256165,15.1587517 L28.9884248,15.1587517 L28.9884248,19.1478969 C31.0686126,16.2225237 34.4237544,14.3609227 38.7854387,14.3609227 C45.562825,14.3609227 50.6626405,18.4830393 50.6626405,27.458616 L50.6626405,48.2686567 L40.9998322,48.2686567 L40.9998322,29.3867028 C40.9998322,24.8656716 38.7183358,22.9375848 35.2289884,22.9375848 Z M70.793491,48.9335142 C62.7411508,48.9335142 57.6413353,45.5427408 55.9637645,39.2265943 L64.1503104,36.8995929 C65.1568529,40.1573948 67.3712464,41.8860244 70.793491,41.8860244 C73.5447073,41.8860244 75.7591008,40.8887381 75.7591008,38.761194 C75.7591008,36.5671642 72.9407817,35.6363636 68.8475088,35.0379919 C62.0701225,33.9077341 57.3058212,31.1818182 57.3058212,24.8656716 C57.3058212,21.6743555 58.6478779,19.1478969 61.2648884,17.21981 C63.9490018,15.2917232 67.3041436,14.2944369 71.3303137,14.2944369 C79.3826539,14.2944369 83.6101325,18.1506106 85.0192921,23.2035278 L76.8327462,25.2645862 C76.094615,22.5386703 74.2157356,21.275441 71.2632109,21.275441 C68.377789,21.275441 66.5660124,22.5386703 66.5660124,24.4667571 C66.5660124,26.660787 69.183023,27.192673 73.2762959,27.7910448 C79.8523738,28.8548168 85.1534977,31.4477612 85.1534977,38.2957938 C85.1534977,41.4871099 83.811441,44.0800543 81.1273276,46.0081411 C78.4432142,47.936228 75.0209696,48.9335142 70.793491,48.9335142 Z M108.63949,39.5590231 L112.128837,45.8086839 C109.981547,47.6037992 106.961919,48.734057 103.405469,48.734057 C97.5004194,48.734057 92.9374266,45.5427408 92.9374266,38.1628223 L93.0045294,23.0705563 L88.2402281,23.0705563 L88.2402281,15.1587517 L93.0716323,15.1587517 L93.0716323,6.31614654 L102.466029,6.31614654 L102.466029,15.1587517 L110.786781,15.1587517 L110.786781,23.0705563 L102.398926,23.0705563 L102.398926,37.2320217 C102.398926,40.1573948 103.740983,40.8887381 105.418554,40.8887381 C106.559302,40.8887381 107.632947,40.3568521 108.63949,39.5590231 Z M131.991277,23.3364993 C129.642677,23.3364993 127.56249,24.8656716 126.690153,26.7937585 L126.690153,48.2686567 L117.027344,48.2686567 L117.027344,15.1587517 L126.690153,15.1587517 L126.690153,19.0149254 C128.233518,16.6214383 130.716323,14.6268657 133.870156,14.6268657 C136.487167,14.6268657 138.567354,15.4911805 139.708103,16.2225237 L136.487167,24.6662144 C135.078007,23.8018996 133.534642,23.3364993 131.991277,23.3364993 Z M174.66868,48.2686567 L165.005871,48.2686567 L165.005871,44.2130258 C162.858581,47.1383989 159.704748,48.9335142 155.343063,48.9335142 C152.055024,48.9335142 149.236705,47.936228 147.022312,45.8751696 C144.807918,43.8141113 143.734273,40.6227951 143.734273,36.2347354 L143.734273,15.1587517 L153.397081,15.1587517 L153.397081,34.2401628 C153.397081,38.6947083 155.946989,40.4233379 158.966616,40.4233379 C161.315216,40.4233379 163.663815,38.9606513 165.005871,36.2347354 L165.005871,15.1587517 L174.66868,15.1587517 L174.66868,48.2686567 Z M198.020466,49 C189.565509,49 181.31186,43.082768 181.31186,31.5142469 C181.31186,20.2116689 189.766818,14.2944369 198.087569,14.2944369 C206.408321,14.2944369 211.84365,18.7489824 213.521221,24.5997286 L204.596544,27.2591588 C203.522899,24.3337856 201.375608,22.7381275 198.221775,22.7381275 C194.665325,22.7381275 191.108874,25.6635007 191.108874,31.5142469 C191.108874,37.431479 194.598222,40.4898236 198.288878,40.4898236 C201.845328,40.4898236 203.992619,38.2957938 205.066264,35.4369064 L213.789633,38.495251 C211.441033,45.4762551 205.468881,49 198.020466,49 Z M236.470391,39.5590231 L239.959738,45.8086839 C237.812448,47.6037992 234.79282,48.734057 231.23637,48.734057 C225.33132,48.734057 220.768327,45.5427408 220.768327,38.1628223 L220.83543,23.0705563 L216.071129,23.0705563 L216.071129,15.1587517 L220.902533,15.1587517 L220.902533,6.31614654 L230.29693,6.31614654 L230.29693,15.1587517 L238.617682,15.1587517 L238.617682,23.0705563 L230.229827,23.0705563 L230.229827,37.2320217 C230.229827,40.1573948 231.571884,40.8887381 233.249455,40.8887381 C234.390203,40.8887381 235.463848,40.3568521 236.470391,39.5590231 Z M259.151149,49 C250.159369,49 241.972823,42.9497965 241.972823,31.5142469 C241.972823,20.3446404 250.494883,14.2944369 259.151149,14.2944369 C268.142929,14.2944369 276.329475,20.3446404 276.329475,31.5142469 C276.329475,42.7503392 267.874518,49 259.151149,49 Z M259.151149,40.5563094 C263.110216,40.5563094 266.532461,37.431479 266.532461,31.5142469 C266.532461,25.7299864 262.976011,22.7381275 259.151149,22.7381275 C255.326288,22.7381275 251.769837,25.6635007 251.769837,31.5142469 C251.769837,37.3649932 255.326288,40.5563094 259.151149,40.5563094 Z M297.936588,23.3364993 C295.587989,23.3364993 293.507801,24.8656716 292.635464,26.7937585 L292.635464,48.2686567 L282.972656,48.2686567 L282.972656,15.1587517 L292.635464,15.1587517 L292.635464,19.0149254 C294.178829,16.6214383 296.661634,14.6268657 299.815467,14.6268657 C302.432478,14.6268657 304.512666,15.4911805 305.653414,16.2225237 L302.432478,24.6662144 C301.023318,23.8018996 299.479953,23.3364993 297.936588,23.3364993 Z M319.476598,48.2686567 L309.81379,48.2686567 L309.81379,0.531886024 L319.476598,0.531886024 L319.476598,48.2686567 Z M333.232679,10.9701493 C330.078846,10.9701493 327.663144,8.57666214 327.663144,5.45183175 C327.663144,2.45997286 330.078846,0 333.232679,0 C336.453615,0 338.869317,2.45997286 338.869317,5.45183175 C338.869317,8.57666214 336.453615,10.9701493 333.232679,10.9701493 Z M338.064083,48.2686567 L328.401275,48.2686567 L328.401275,15.1587517 L338.064083,15.1587517 L338.064083,48.2686567 Z M358.664654,48.9335142 C350.612313,48.9335142 345.512498,45.5427408 343.834927,39.2265943 L352.021473,36.8995929 C353.028015,40.1573948 355.242409,41.8860244 358.664654,41.8860244 C361.41587,41.8860244 363.630263,40.8887381 363.630263,38.761194 C363.630263,36.5671642 360.811944,35.6363636 356.718671,35.0379919 C349.941285,33.9077341 345.176984,31.1818182 345.176984,24.8656716 C345.176984,21.6743555 346.51904,19.1478969 349.136051,17.21981 C351.820164,15.2917232 355.175306,14.2944369 359.201476,14.2944369 C367.253816,14.2944369 371.481295,18.1506106 372.890455,23.2035278 L364.703909,25.2645862 C363.965778,22.5386703 362.086898,21.275441 359.134373,21.275441 C356.248952,21.275441 354.437175,22.5386703 354.437175,24.4667571 C354.437175,26.660787 357.054186,27.192673 361.147458,27.7910448 C367.723536,28.8548168 373.02466,31.4477612 373.02466,38.2957938 C373.02466,41.4871099 371.682604,44.0800543 368.99849,46.0081411 C366.314377,47.936228 362.892132,48.9335142 358.664654,48.9335142 Z M396.510653,39.5590231 L400,45.8086839 C397.852709,47.6037992 394.833082,48.734057 391.276631,48.734057 C385.371582,48.734057 380.808589,45.5427408 380.808589,38.1628223 L380.875692,23.0705563 L376.111391,23.0705563 L376.111391,15.1587517 L380.942795,15.1587517 L380.942795,6.31614654 L390.337192,6.31614654 L390.337192,15.1587517 L398.657943,15.1587517 L398.657943,23.0705563 L390.270089,23.0705563 L390.270089,37.2320217 C390.270089,40.1573948 391.612146,40.8887381 393.289716,40.8887381 C394.430465,40.8887381 395.50411,40.3568521 396.510653,39.5590231 Z" id="instructorlist" fill="#1948FF" fill-rule="nonzero"></path>
    </g>
</svg>